<svg width="29" height="29" viewBox="0 0 29 29" fill="none" xmlns="http://www.w3.org/2000/svg">
    <rect width="29" height="29" rx="14.5" fill="white"/>
    <path d="M15.55 8.63745H12.0333C10.8412 8.63745 9.86355 8.63745 9.05296 8.68493C7.60673 8.77021 6.68976 9.00758 6.03038 9.66783C5 10.6973 5 12.3554 5 15.6708C5 18.9861 5 20.6442 6.03038 21.6737C7.06077 22.7032 8.718 22.7041 12.0333 22.7041H15.55C18.8653 22.7041 20.5234 22.7041 21.553 21.6737C22.5825 20.6434 22.5833 18.9861 22.5833 15.6708C22.5833 12.3554 22.5833 10.6973 21.553 9.66783C20.8936 9.00846 19.9766 8.77108 18.5313 8.68493C17.7198 8.63745 16.7422 8.63745 15.55 8.63745Z" stroke="#A3B5D4" stroke-width="1.8125"/>
    <path opacity="0.5" d="M9.05273 8.68498C9.77629 8.66739 10.4154 8.15748 10.6616 7.477L10.6924 7.38645L10.7144 7.31875C10.7513 7.2071 10.7706 7.15171 10.79 7.10248C10.9142 6.79372 11.1234 6.52655 11.3934 6.33202C11.6635 6.13748 11.9831 6.02357 12.3153 6.00352C12.3672 6 12.427 6 12.543 6H15.0381C15.155 6 15.2139 6 15.2667 6.00352C15.5989 6.02357 15.9186 6.13748 16.1886 6.33202C16.4586 6.52655 16.6678 6.79372 16.792 7.10248C16.8123 7.15171 16.8307 7.20798 16.8676 7.31875L16.8905 7.38645C16.9063 7.43304 16.9134 7.45678 16.9213 7.477C17.1674 8.15835 17.8066 8.66739 18.5302 8.68498" stroke="#A3B5D4" stroke-width="1.8125"/>
    <path opacity="0.5" d="M22.2864 11.0286C19.6401 12.7482 18.3169 13.608 16.9226 14.0415C14.8838 14.6749 12.7008 14.6749 10.662 14.0415C9.2668 13.608 7.94366 12.7491 5.29736 11.0286" stroke="#A3B5D4" stroke-width="1.8125" stroke-linecap="round"/>
    <path d="M10.2749 13.0334V14.7918M17.3082 13.0334V14.7918" stroke="#A3B5D4" stroke-width="1.8125" stroke-linecap="round"/>
</svg>
