<svg width="31" height="31" viewBox="0 0 31 31" fill="none" xmlns="http://www.w3.org/2000/svg">
    <path d="M6.45833 15.5V5.16663M24.5417 25.8333V21.9583M6.45833 25.8333V20.6666M24.5417 16.7916V5.16663M15.5 9.04163V5.16663M15.5 25.8333V14.2083" stroke="#111827" stroke-width="2" stroke-linecap="round"/>
    <path d="M6.45833 20.6667C7.88507 20.6667 9.04167 19.5101 9.04167 18.0833C9.04167 16.6566 7.88507 15.5 6.45833 15.5C5.0316 15.5 3.875 16.6566 3.875 18.0833C3.875 19.5101 5.0316 20.6667 6.45833 20.6667Z" stroke="#111827" stroke-width="2" stroke-linecap="round"/>
    <path d="M15.5 14.2083C16.9267 14.2083 18.0833 13.0517 18.0833 11.625C18.0833 10.1982 16.9267 9.04163 15.5 9.04163C14.0733 9.04163 12.9167 10.1982 12.9167 11.625C12.9167 13.0517 14.0733 14.2083 15.5 14.2083Z" stroke="#111827" stroke-width="2" stroke-linecap="round"/>
    <path d="M24.5417 21.9583C25.9684 21.9583 27.125 20.8017 27.125 19.375C27.125 17.9482 25.9684 16.7916 24.5417 16.7916C23.1149 16.7916 21.9583 17.9482 21.9583 19.375C21.9583 20.8017 23.1149 21.9583 24.5417 21.9583Z" stroke="#111827" stroke-width="2" stroke-linecap="round"/>
</svg>
