<svg width="33" height="33" viewBox="0 0 33 33" fill="none" xmlns="http://www.w3.org/2000/svg">
    <g clip-path="url(#clip0_996_399)">
        <path d="M25.2739 0.499512H8.27393C4.13179 0.499512 0.773926 3.85738 0.773926 7.99951V24.9995C0.773926 29.1416 4.13179 32.4995 8.27393 32.4995H25.2739C29.4161 32.4995 32.7739 29.1416 32.7739 24.9995V7.99951C32.7739 3.85738 29.4161 0.499512 25.2739 0.499512Z" fill="url(#paint0_radial_996_399)"/>
        <path d="M25.2739 0.499512H8.27393C4.13179 0.499512 0.773926 3.85738 0.773926 7.99951V24.9995C0.773926 29.1416 4.13179 32.4995 8.27393 32.4995H25.2739C29.4161 32.4995 32.7739 29.1416 32.7739 24.9995V7.99951C32.7739 3.85738 29.4161 0.499512 25.2739 0.499512Z" fill="url(#paint1_radial_996_399)"/>
        <path d="M16.7751 3.99951C13.3803 3.99951 12.9542 4.01439 11.6209 4.07501C10.2902 4.13601 9.3818 4.34664 8.58705 4.65576C7.7648 4.97501 7.06743 5.40214 6.37268 6.09714C5.6773 6.79201 5.25018 7.48939 4.92993 8.31126C4.61993 9.10626 4.40905 10.015 4.34918 11.3451C4.28955 12.6785 4.27393 13.1048 4.27393 16.4996C4.27393 19.8945 4.28893 20.3193 4.34943 21.6525C4.41068 22.9833 4.6213 23.8916 4.93018 24.6864C5.24968 25.5086 5.6768 26.206 6.3718 26.9008C7.06643 27.5961 7.7638 28.0243 8.58543 28.3435C9.3808 28.6526 10.2893 28.8633 11.6198 28.9243C12.9532 28.9849 13.3789 28.9998 16.7736 28.9998C20.1687 28.9998 20.5934 28.9849 21.9267 28.9243C23.2574 28.8633 24.1668 28.6526 24.9622 28.3435C25.784 28.0243 26.4804 27.5961 27.1749 26.9008C27.8703 26.206 28.2973 25.5086 28.6177 24.6868C28.9249 23.8916 29.1359 22.983 29.1984 21.6528C29.2583 20.3195 29.2739 19.8945 29.2739 16.4996C29.2739 13.1048 29.2583 12.6788 29.1984 11.3454C29.1359 10.0146 28.9249 9.10639 28.6177 8.31164C28.2973 7.48939 27.8703 6.79201 27.1749 6.09714C26.4797 5.40189 25.7843 4.97476 24.9614 4.65589C24.1646 4.34664 23.2557 4.13589 21.9249 4.07501C20.5915 4.01439 20.1671 3.99951 16.7712 3.99951H16.7751ZM15.6537 6.25214C15.9866 6.25164 16.3579 6.25214 16.7751 6.25214C20.1127 6.25214 20.5082 6.26414 21.8262 6.32401C23.0449 6.37976 23.7064 6.58339 24.1471 6.75451C24.7304 6.98101 25.1463 7.25189 25.5836 7.68951C26.0211 8.12701 26.2918 8.54364 26.5189 9.12701C26.6901 9.56701 26.8939 10.2285 26.9494 11.4473C27.0093 12.765 27.0223 13.1608 27.0223 16.4968C27.0223 19.8328 27.0093 20.2286 26.9494 21.5463C26.8937 22.765 26.6901 23.4265 26.5189 23.8666C26.2924 24.45 26.0211 24.8654 25.5836 25.3026C25.1461 25.7401 24.7307 26.0109 24.1471 26.2375C23.7069 26.4094 23.0449 26.6125 21.8262 26.6683C20.5084 26.7281 20.1127 26.7411 16.7751 26.7411C13.4373 26.7411 13.0417 26.7281 11.7241 26.6683C10.5053 26.612 9.8438 26.4084 9.4028 26.2373C8.81955 26.0106 8.4028 25.7399 7.9653 25.3024C7.5278 24.8649 7.25705 24.4493 7.02993 23.8656C6.8588 23.4255 6.65493 22.764 6.59943 21.5453C6.53955 20.2275 6.52755 19.8318 6.52755 16.4936C6.52755 13.1555 6.53955 12.7619 6.59943 11.4441C6.65518 10.2254 6.8588 9.56389 7.02993 9.12326C7.25655 8.53989 7.5278 8.12326 7.96543 7.68576C8.40305 7.24826 8.81955 6.97739 9.40293 6.75039C9.84355 6.57851 10.5053 6.37539 11.7241 6.31939C12.8772 6.26726 13.3241 6.25164 15.6537 6.24901V6.25214ZM23.4476 8.32764C22.6194 8.32764 21.9476 8.99889 21.9476 9.82714C21.9476 10.6553 22.6194 11.3271 23.4476 11.3271C24.2757 11.3271 24.9476 10.6553 24.9476 9.82714C24.9476 8.99901 24.2757 8.32714 23.4476 8.32714V8.32764ZM16.7751 10.0803C13.2301 10.0803 10.3558 12.9545 10.3558 16.4996C10.3558 20.0448 13.2301 22.9176 16.7751 22.9176C20.3202 22.9176 23.1934 20.0448 23.1934 16.4996C23.1934 12.9546 20.3199 10.0803 16.7748 10.0803H16.7751ZM16.7751 12.3329C19.0762 12.3329 20.9418 14.1983 20.9418 16.4996C20.9418 18.8008 19.0762 20.6664 16.7751 20.6664C14.4739 20.6664 12.6084 18.8008 12.6084 16.4996C12.6084 14.1983 14.4738 12.3329 16.7751 12.3329Z" fill="white"/>
    </g>
    <defs>
        <radialGradient id="paint0_radial_996_399" cx="0" cy="0" r="1" gradientUnits="userSpaceOnUse" gradientTransform="translate(9.27393 34.9641) rotate(-90) scale(31.7144 29.4969)">
            <stop stop-color="#FFDD55"/>
            <stop offset="0.1" stop-color="#FFDD55"/>
            <stop offset="0.5" stop-color="#FF543E"/>
            <stop offset="1" stop-color="#C837AB"/>
        </radialGradient>
        <radialGradient id="paint1_radial_996_399" cx="0" cy="0" r="1" gradientUnits="userSpaceOnUse" gradientTransform="translate(-4.5862 2.80464) rotate(78.681) scale(14.1765 58.436)">
            <stop stop-color="#3771C8"/>
            <stop offset="0.128" stop-color="#3771C8"/>
            <stop offset="1" stop-color="#6600FF" stop-opacity="0"/>
        </radialGradient>
        <clipPath id="clip0_996_399">
            <rect width="32" height="32" fill="white" transform="translate(0.773926 0.499512)"/>
        </clipPath>
    </defs>
</svg>
