<svg width="29" height="29" viewBox="0 0 29 29" fill="none" xmlns="http://www.w3.org/2000/svg">
    <rect width="29" height="29" rx="14.5" fill="white"/>
    <path d="M17.6595 11.7417L18.9 12.9823C19.8352 13.9174 20.1641 12.1928 21.4695 11.9767C21.9075 11.9034 22.2937 11.7549 22.4591 11.2699C22.6057 10.8414 22.4394 10.4382 21.9197 9.91848L20.6086 8.60838M13.56 15.4399L22.9582 6.04175M10.2707 22.9584C10.8261 22.9584 11.376 22.849 11.8891 22.6365C12.4022 22.424 12.8684 22.1124 13.2611 21.7197C13.6539 21.327 13.9654 20.8608 14.1779 20.3477C14.3904 19.8346 14.4998 19.2846 14.4998 18.7292C14.4998 18.1739 14.3904 17.6239 14.1779 17.1108C13.9654 16.5977 13.6539 16.1315 13.2611 15.7388C12.8684 15.3461 12.4022 15.0345 11.8891 14.822C11.376 14.6095 10.8261 14.5001 10.2707 14.5001C9.14903 14.5001 8.07332 14.9457 7.2802 15.7388C6.48708 16.5319 6.0415 17.6076 6.0415 18.7292C6.0415 19.8509 6.48708 20.9266 7.2802 21.7197C8.07332 22.5128 9.14903 22.9584 10.2707 22.9584Z" stroke="#95A7AD" stroke-width="1.5" stroke-linecap="round" stroke-linejoin="round"/>
</svg>
