<svg width="25" height="24" viewBox="0 0 25 24" fill="none" xmlns="http://www.w3.org/2000/svg">
    <path d="M2.0957 12.0039C2.0957 17.5269 6.5727 22.0039 12.0957 22.0039C17.6187 22.0039 22.0957 17.5269 22.0957 12.0039C22.0957 6.48091 17.6187 2.00391 12.0957 2.00391C6.5727 2.00391 2.0957 6.48091 2.0957 12.0039Z" stroke="white" stroke-width="1.5" stroke-linecap="round" stroke-linejoin="round"/>
    <path d="M13.0956 2.05371C13.0956 2.05371 16.0956 6.00371 16.0956 12.0037C16.0956 18.0037 13.0956 21.9537 13.0956 21.9537M11.0956 21.9537C11.0956 21.9537 8.09559 18.0037 8.09559 12.0037C8.09559 6.00371 11.0956 2.05371 11.0956 2.05371M2.72559 15.5037H21.4656M2.72559 8.50371H21.4656" stroke="white" stroke-width="1.5" stroke-linecap="round" stroke-linejoin="round"/>
</svg>
