<svg width="198" height="89" viewBox="0 0 198 89" fill="none" xmlns="http://www.w3.org/2000/svg">
    <g clip-path="url(#clip0_3_10786)">
        <line x1="7.49805" y1="51.5151" x2="190.19" y2="51.5151" stroke="white"/>
        <path d="M13.6108 61.0457V61.898H10.2188V61.0457H13.6108ZM11.2074 59.4776H12.2131V65.7162C12.2131 66.0003 12.2543 66.2133 12.3366 66.3554C12.4219 66.4946 12.5298 66.5883 12.6605 66.6366C12.794 66.6821 12.9347 66.7048 13.0824 66.7048C13.1932 66.7048 13.2841 66.6991 13.3551 66.6878C13.4261 66.6736 13.483 66.6622 13.5256 66.6537L13.7301 67.5571C13.6619 67.5827 13.5668 67.6082 13.4446 67.6338C13.3224 67.6622 13.1676 67.6764 12.9801 67.6764C12.696 67.6764 12.4176 67.6153 12.1449 67.4932C11.875 67.371 11.6506 67.1849 11.4716 66.9349C11.2955 66.6849 11.2074 66.3696 11.2074 65.9889V59.4776ZM17.0497 67.7446C16.6349 67.7446 16.2585 67.6665 15.9205 67.5102C15.5824 67.3511 15.3139 67.1224 15.1151 66.8241C14.9162 66.523 14.8168 66.1594 14.8168 65.7332C14.8168 65.3582 14.8906 65.0543 15.0384 64.8213C15.1861 64.5855 15.3835 64.4008 15.6307 64.2673C15.8778 64.1338 16.1506 64.0344 16.4489 63.969C16.75 63.9008 17.0526 63.8469 17.3565 63.8071C17.7543 63.756 18.0767 63.7176 18.3239 63.692C18.5739 63.6636 18.7557 63.6168 18.8693 63.5514C18.9858 63.4861 19.044 63.3724 19.044 63.2105V63.1764C19.044 62.756 18.929 62.4293 18.6989 62.1963C18.4716 61.9633 18.1264 61.8469 17.6634 61.8469C17.1832 61.8469 16.8068 61.952 16.5341 62.1622C16.2614 62.3724 16.0696 62.5969 15.9588 62.8355L15.0043 62.4946C15.1747 62.0969 15.402 61.7872 15.6861 61.5656C15.973 61.3412 16.2855 61.1849 16.6236 61.0969C16.9645 61.006 17.2997 60.9605 17.6293 60.9605C17.8395 60.9605 18.081 60.9861 18.3537 61.0372C18.6293 61.0855 18.8949 61.1864 19.1506 61.3398C19.4091 61.4932 19.6236 61.7247 19.794 62.0344C19.9645 62.344 20.0497 62.7588 20.0497 63.2787V67.5912H19.044V66.7048H18.9929C18.9247 66.8469 18.8111 66.9989 18.652 67.1608C18.4929 67.3227 18.2813 67.4605 18.017 67.5741C17.7528 67.6878 17.4304 67.7446 17.0497 67.7446ZM17.2031 66.8412C17.6009 66.8412 17.9361 66.7631 18.2088 66.6068C18.4844 66.4506 18.6918 66.2489 18.831 66.0017C18.973 65.7545 19.044 65.4946 19.044 65.2219V64.3014C19.0014 64.3526 18.9077 64.3994 18.7628 64.442C18.6207 64.4818 18.456 64.5173 18.2685 64.5486C18.0838 64.577 17.9034 64.6026 17.7273 64.6253C17.554 64.6452 17.4134 64.6622 17.3054 64.6764C17.044 64.7105 16.7997 64.7659 16.5724 64.8426C16.348 64.9165 16.1662 65.0287 16.027 65.1793C15.8906 65.327 15.8224 65.5287 15.8224 65.7844C15.8224 66.1338 15.9517 66.398 16.2102 66.577C16.4716 66.7531 16.8026 66.8412 17.2031 66.8412ZM22.7717 58.8639V59.631C22.7717 59.8639 22.729 60.1125 22.6438 60.3767C22.5614 60.6381 22.4393 60.8923 22.2773 61.1395C22.1183 61.3838 21.9251 61.5969 21.6978 61.7787L21.1523 61.3355C21.3313 61.0798 21.4862 60.8142 21.6168 60.5386C21.7504 60.2602 21.8171 59.9633 21.8171 59.648V58.8639H22.7717ZM25.1058 58.8639V67.5912H24.1001V58.8639H25.1058ZM26.9478 67.5912V61.0457H27.9535V67.5912H26.9478ZM27.4592 59.9548C27.2631 59.9548 27.0941 59.8881 26.9521 59.7545C26.8129 59.621 26.7433 59.4605 26.7433 59.273C26.7433 59.0855 26.8129 58.925 26.9521 58.7915C27.0941 58.6579 27.2631 58.5912 27.4592 58.5912C27.6552 58.5912 27.8228 58.6579 27.962 58.7915C28.104 58.925 28.1751 59.0855 28.1751 59.273C28.1751 59.4605 28.104 59.621 27.962 59.7545C27.8228 59.8881 27.6552 59.9548 27.4592 59.9548ZM29.7955 67.5912V61.0457H30.767V62.0685H30.8523C30.9886 61.719 31.2088 61.4477 31.5128 61.2545C31.8168 61.0585 32.1818 60.9605 32.608 60.9605C33.0398 60.9605 33.3991 61.0585 33.6861 61.2545C33.9759 61.4477 34.2017 61.719 34.3636 62.0685H34.4318C34.5994 61.7304 34.8509 61.4619 35.1861 61.2631C35.5213 61.0614 35.9233 60.9605 36.392 60.9605C36.9773 60.9605 37.456 61.1437 37.8281 61.5102C38.2003 61.8739 38.3864 62.4406 38.3864 63.2105V67.5912H37.3807V63.2105C37.3807 62.7275 37.2486 62.3824 36.9844 62.175C36.7202 61.9676 36.4091 61.8639 36.0511 61.8639C35.5909 61.8639 35.2344 62.0031 34.9815 62.2815C34.7287 62.5571 34.6023 62.9065 34.6023 63.3298V67.5912H33.5795V63.1082C33.5795 62.7361 33.4588 62.4364 33.2173 62.2091C32.9759 61.979 32.6648 61.8639 32.2841 61.8639C32.0227 61.8639 31.7784 61.9335 31.5511 62.0727C31.3267 62.2119 31.1449 62.4051 31.0057 62.6523C30.8693 62.8966 30.8011 63.1793 30.8011 63.5003V67.5912H29.7955ZM44.5376 65.2048L44.5206 63.9605H44.7251L47.5888 61.0457H48.8331L45.782 64.131H45.6967L44.5376 65.2048ZM43.6001 67.5912V58.8639H44.6058V67.5912H43.6001ZM47.7592 67.5912L45.2024 64.3526L45.9183 63.6537L49.0376 67.5912H47.7592ZM52.517 67.7276C51.9261 67.7276 51.4077 67.5869 50.9616 67.3057C50.5185 67.0244 50.1719 66.631 49.9219 66.1253C49.6747 65.6196 49.5511 65.0287 49.5511 64.3526C49.5511 63.6707 49.6747 63.0756 49.9219 62.567C50.1719 62.0585 50.5185 61.6636 50.9616 61.3824C51.4077 61.1011 51.9261 60.9605 52.517 60.9605C53.108 60.9605 53.625 61.1011 54.0682 61.3824C54.5142 61.6636 54.8608 62.0585 55.108 62.567C55.358 63.0756 55.483 63.6707 55.483 64.3526C55.483 65.0287 55.358 65.6196 55.108 66.1253C54.8608 66.631 54.5142 67.0244 54.0682 67.3057C53.625 67.5869 53.108 67.7276 52.517 67.7276ZM52.517 66.8241C52.9659 66.8241 53.3352 66.7091 53.625 66.479C53.9148 66.2489 54.1293 65.9463 54.2685 65.5713C54.4077 65.1963 54.4773 64.7901 54.4773 64.3526C54.4773 63.9151 54.4077 63.5074 54.2685 63.1295C54.1293 62.7517 53.9148 62.4463 53.625 62.2133C53.3352 61.9804 52.9659 61.8639 52.517 61.8639C52.0682 61.8639 51.6989 61.9804 51.4091 62.2133C51.1193 62.4463 50.9048 62.7517 50.7656 63.1295C50.6264 63.5074 50.5568 63.9151 50.5568 64.3526C50.5568 64.7901 50.6264 65.1963 50.7656 65.5713C50.9048 65.9463 51.1193 66.2489 51.4091 66.479C51.6989 66.7091 52.0682 66.8241 52.517 66.8241ZM57.9045 58.8639V59.631C57.9045 59.8639 57.8619 60.1125 57.7766 60.3767C57.6942 60.6381 57.5721 60.8923 57.4102 61.1395C57.2511 61.3838 57.0579 61.5969 56.8306 61.7787L56.2852 61.3355C56.4641 61.0798 56.619 60.8142 56.7496 60.5386C56.8832 60.2602 56.9499 59.9633 56.9499 59.648V58.8639H57.9045ZM58.9751 67.5912V61.0457H59.9467V62.0344H60.0149C60.1342 61.7105 60.3501 61.4477 60.6626 61.246C60.9751 61.0443 61.3274 60.9435 61.7195 60.9435C61.7933 60.9435 61.8857 60.9449 61.9964 60.9477C62.1072 60.9506 62.1911 60.9548 62.2479 60.9605V61.9832C62.2138 61.9747 62.1357 61.9619 62.0135 61.9449C61.8942 61.925 61.7678 61.9151 61.6342 61.9151C61.3161 61.9151 61.032 61.9818 60.782 62.1153C60.5348 62.246 60.3388 62.4278 60.1939 62.6608C60.0518 62.8909 59.9808 63.1537 59.9808 63.4491V67.5912H58.9751ZM68.0763 62.5116L67.1729 62.7673C67.1161 62.6168 67.0323 62.4704 66.9215 62.3284C66.8136 62.1835 66.6658 62.0642 66.4783 61.9704C66.2908 61.8767 66.0508 61.8298 65.7582 61.8298C65.3576 61.8298 65.0238 61.9222 64.7567 62.1068C64.4925 62.2886 64.3604 62.5202 64.3604 62.8014C64.3604 63.0514 64.4513 63.2489 64.6332 63.3937C64.815 63.5386 65.0991 63.6594 65.4854 63.756L66.457 63.9946C67.0423 64.1366 67.4783 64.354 67.7653 64.6466C68.0522 64.9364 68.1957 65.3099 68.1957 65.7673C68.1957 66.1423 68.0877 66.4776 67.8718 66.773C67.6587 67.0685 67.3604 67.3014 66.9769 67.4719C66.5934 67.6423 66.1474 67.7276 65.6388 67.7276C64.9712 67.7276 64.4187 67.5827 63.9812 67.2929C63.5437 67.0031 63.2667 66.5798 63.1502 66.023L64.1048 65.7844C64.1957 66.1366 64.3675 66.4008 64.6204 66.577C64.8761 66.7531 65.2099 66.8412 65.6218 66.8412C66.0906 66.8412 66.4627 66.7418 66.7383 66.5429C67.0167 66.3412 67.1559 66.0997 67.1559 65.8185C67.1559 65.5912 67.0763 65.4008 66.9173 65.2474C66.7582 65.0912 66.5138 64.9747 66.1843 64.898L65.0934 64.6423C64.494 64.5003 64.0536 64.2801 63.7724 63.9818C63.494 63.6807 63.3548 63.3043 63.3548 62.8526C63.3548 62.4832 63.4585 62.1565 63.6658 61.8724C63.8761 61.5883 64.1616 61.3653 64.5224 61.2034C64.886 61.0415 65.2979 60.9605 65.7582 60.9605C66.4059 60.9605 66.9144 61.1026 67.2837 61.3866C67.6559 61.6707 67.9201 62.0457 68.0763 62.5116ZM71.6357 67.7446C71.2209 67.7446 70.8445 67.6665 70.5064 67.5102C70.1683 67.3511 69.8999 67.1224 69.701 66.8241C69.5021 66.523 69.4027 66.1594 69.4027 65.7332C69.4027 65.3582 69.4766 65.0543 69.6243 64.8213C69.772 64.5855 69.9695 64.4008 70.2166 64.2673C70.4638 64.1338 70.7365 64.0344 71.0348 63.969C71.3359 63.9008 71.6385 63.8469 71.9425 63.8071C72.3402 63.756 72.6626 63.7176 72.9098 63.692C73.1598 63.6636 73.3416 63.6168 73.4553 63.5514C73.5717 63.4861 73.63 63.3724 73.63 63.2105V63.1764C73.63 62.756 73.5149 62.4293 73.2848 62.1963C73.0575 61.9633 72.7124 61.8469 72.2493 61.8469C71.7692 61.8469 71.3928 61.952 71.12 62.1622C70.8473 62.3724 70.6555 62.5969 70.5447 62.8355L69.5902 62.4946C69.7607 62.0969 69.9879 61.7872 70.272 61.5656C70.5589 61.3412 70.8714 61.1849 71.2095 61.0969C71.5504 61.006 71.8857 60.9605 72.2152 60.9605C72.4254 60.9605 72.6669 60.9861 72.9396 61.0372C73.2152 61.0855 73.4808 61.1864 73.7365 61.3398C73.995 61.4932 74.2095 61.7247 74.38 62.0344C74.5504 62.344 74.6357 62.7588 74.6357 63.2787V67.5912H73.63V66.7048H73.5788C73.5107 66.8469 73.397 66.9989 73.2379 67.1608C73.0788 67.3227 72.8672 67.4605 72.603 67.5741C72.3388 67.6878 72.0163 67.7446 71.6357 67.7446ZM71.7891 66.8412C72.1868 66.8412 72.522 66.7631 72.7947 66.6068C73.0703 66.4506 73.2777 66.2489 73.4169 66.0017C73.5589 65.7545 73.63 65.4946 73.63 65.2219V64.3014C73.5874 64.3526 73.4936 64.3994 73.3487 64.442C73.2067 64.4818 73.0419 64.5173 72.8544 64.5486C72.6697 64.577 72.4893 64.6026 72.3132 64.6253C72.1399 64.6452 71.9993 64.6622 71.8913 64.6764C71.63 64.7105 71.3857 64.7659 71.1584 64.8426C70.9339 64.9165 70.7521 65.0287 70.6129 65.1793C70.4766 65.327 70.4084 65.5287 70.4084 65.7844C70.4084 66.1338 70.5376 66.398 70.7962 66.577C71.0575 66.7531 71.3885 66.8412 71.7891 66.8412ZM79.3178 61.0457V61.898H75.9258V61.0457H79.3178ZM76.9144 59.4776H77.9201V65.7162C77.9201 66.0003 77.9613 66.2133 78.0437 66.3554C78.1289 66.4946 78.2369 66.5883 78.3675 66.6366C78.5011 66.6821 78.6417 66.7048 78.7894 66.7048C78.9002 66.7048 78.9911 66.6991 79.0621 66.6878C79.1332 66.6736 79.19 66.6622 79.2326 66.6537L79.4371 67.5571C79.369 67.5827 79.2738 67.6082 79.1516 67.6338C79.0295 67.6622 78.8746 67.6764 78.6871 67.6764C78.4031 67.6764 78.1246 67.6153 77.8519 67.4932C77.582 67.371 77.3576 67.1849 77.1786 66.9349C77.0025 66.6849 76.9144 66.3696 76.9144 65.9889V59.4776ZM81.9087 65.2048L81.8917 63.9605H82.0962L84.9599 61.0457H86.2042L83.1531 64.131H83.0678L81.9087 65.2048ZM80.9712 67.5912V58.8639H81.9769V67.5912H80.9712ZM85.1303 67.5912L82.5735 64.3526L83.2894 63.6537L86.4087 67.5912H85.1303ZM87.4986 67.5912V61.0457H88.5043V67.5912H87.4986ZM88.0099 59.9548C87.8139 59.9548 87.6449 59.8881 87.5028 59.7545C87.3636 59.621 87.294 59.4605 87.294 59.273C87.294 59.0855 87.3636 58.925 87.5028 58.7915C87.6449 58.6579 87.8139 58.5912 88.0099 58.5912C88.206 58.5912 88.3736 58.6579 88.5128 58.7915C88.6548 58.925 88.7259 59.0855 88.7259 59.273C88.7259 59.4605 88.6548 59.621 88.5128 59.7545C88.3736 59.8881 88.206 59.9548 88.0099 59.9548ZM93.0053 67.7276C92.3917 67.7276 91.8633 67.5827 91.4201 67.2929C90.9769 67.0031 90.636 66.604 90.3974 66.0954C90.1587 65.5869 90.0394 65.006 90.0394 64.3526C90.0394 63.6878 90.1616 63.1011 90.4059 62.5926C90.6531 62.0812 90.9968 61.6821 91.4371 61.3952C91.8803 61.1054 92.3974 60.9605 92.9883 60.9605C93.4485 60.9605 93.8633 61.0457 94.2326 61.2162C94.6019 61.3866 94.9045 61.6253 95.1403 61.9321C95.3761 62.2389 95.5224 62.5969 95.5792 63.006H94.5735C94.4968 62.7077 94.3263 62.4435 94.0621 62.2133C93.8008 61.9804 93.4485 61.8639 93.0053 61.8639C92.6133 61.8639 92.2695 61.9662 91.9741 62.1707C91.6815 62.3724 91.4528 62.6579 91.288 63.0273C91.1261 63.3937 91.0451 63.8241 91.0451 64.3185C91.0451 64.8241 91.1246 65.2645 91.2837 65.6395C91.4457 66.0145 91.6729 66.3057 91.9656 66.5131C92.261 66.7204 92.6076 66.8241 93.0053 66.8241C93.2667 66.8241 93.5039 66.7787 93.717 66.6878C93.93 66.5969 94.1104 66.4662 94.2582 66.2957C94.4059 66.1253 94.511 65.9207 94.5735 65.6821H95.5792C95.5224 66.0685 95.3817 66.4165 95.1573 66.7261C94.9357 67.0329 94.6417 67.2773 94.2752 67.4591C93.9116 67.6381 93.4883 67.7276 93.0053 67.7276ZM98.055 63.6537V67.5912H97.0494V58.8639H98.055V62.0685H98.1403C98.2937 61.7304 98.5238 61.4619 98.8306 61.2631C99.1403 61.0614 99.5522 60.9605 100.066 60.9605C100.512 60.9605 100.903 61.05 101.238 61.229C101.574 61.4051 101.833 61.6764 102.018 62.0429C102.206 62.4065 102.299 62.8696 102.299 63.4321V67.5912H101.294V63.5003C101.294 62.9804 101.159 62.5784 100.889 62.2943C100.622 62.0074 100.251 61.8639 99.7766 61.8639C99.4471 61.8639 99.1516 61.9335 98.8903 62.0727C98.6317 62.2119 98.4272 62.4151 98.2766 62.6821C98.1289 62.9491 98.055 63.273 98.055 63.6537ZM105.145 58.8639V67.5912H104.139V58.8639H105.145ZM108.913 67.7446C108.498 67.7446 108.122 67.6665 107.784 67.5102C107.446 67.3511 107.177 67.1224 106.978 66.8241C106.779 66.523 106.68 66.1594 106.68 65.7332C106.68 65.3582 106.754 65.0543 106.902 64.8213C107.049 64.5855 107.247 64.4008 107.494 64.2673C107.741 64.1338 108.014 64.0344 108.312 63.969C108.613 63.9008 108.916 63.8469 109.22 63.8071C109.618 63.756 109.94 63.7176 110.187 63.692C110.437 63.6636 110.619 63.6168 110.733 63.5514C110.849 63.4861 110.907 63.3724 110.907 63.2105V63.1764C110.907 62.756 110.792 62.4293 110.562 62.1963C110.335 61.9633 109.99 61.8469 109.527 61.8469C109.047 61.8469 108.67 61.952 108.397 62.1622C108.125 62.3724 107.933 62.5969 107.822 62.8355L106.868 62.4946C107.038 62.0969 107.265 61.7872 107.549 61.5656C107.836 61.3412 108.149 61.1849 108.487 61.0969C108.828 61.006 109.163 60.9605 109.493 60.9605C109.703 60.9605 109.944 60.9861 110.217 61.0372C110.493 61.0855 110.758 61.1864 111.014 61.3398C111.272 61.4932 111.487 61.7247 111.657 62.0344C111.828 62.344 111.913 62.7588 111.913 63.2787V67.5912H110.907V66.7048H110.856C110.788 66.8469 110.674 66.9989 110.515 67.1608C110.356 67.3227 110.145 67.4605 109.88 67.5741C109.616 67.6878 109.294 67.7446 108.913 67.7446ZM109.066 66.8412C109.464 66.8412 109.799 66.7631 110.072 66.6068C110.348 66.4506 110.555 66.2489 110.694 66.0017C110.836 65.7545 110.907 65.4946 110.907 65.2219V64.3014C110.865 64.3526 110.771 64.3994 110.626 64.442C110.484 64.4818 110.319 64.5173 110.132 64.5486C109.947 64.577 109.767 64.6026 109.591 64.6253C109.417 64.6452 109.277 64.6622 109.169 64.6764C108.907 64.7105 108.663 64.7659 108.436 64.8426C108.211 64.9165 108.029 65.0287 107.89 65.1793C107.754 65.327 107.686 65.5287 107.686 65.7844C107.686 66.1338 107.815 66.398 108.074 66.577C108.335 66.7531 108.666 66.8412 109.066 66.8412ZM113.749 67.5912V61.0457H114.72V62.0344H114.788C114.908 61.7105 115.124 61.4477 115.436 61.246C115.749 61.0443 116.101 60.9435 116.493 60.9435C116.567 60.9435 116.659 60.9449 116.77 60.9477C116.881 60.9506 116.964 60.9548 117.021 60.9605V61.9832C116.987 61.9747 116.909 61.9619 116.787 61.9449C116.668 61.925 116.541 61.9151 116.408 61.9151C116.089 61.9151 115.805 61.9818 115.555 62.1153C115.308 62.246 115.112 62.4278 114.967 62.6608C114.825 62.8909 114.754 63.1537 114.754 63.4491V67.5912H113.749ZM118.213 67.5912V61.0457H119.219V67.5912H118.213ZM118.725 59.9548C118.529 59.9548 118.36 59.8881 118.218 59.7545C118.078 59.621 118.009 59.4605 118.009 59.273C118.009 59.0855 118.078 58.925 118.218 58.7915C118.36 58.6579 118.529 58.5912 118.725 58.5912C118.921 58.5912 119.088 58.6579 119.228 58.7915C119.37 58.925 119.441 59.0855 119.441 59.273C119.441 59.4605 119.37 59.621 119.228 59.7545C119.088 59.8881 118.921 59.9548 118.725 59.9548ZM124.436 67.5912V61.0457H125.408V62.0344H125.476C125.595 61.7105 125.811 61.4477 126.124 61.246C126.436 61.0443 126.788 60.9435 127.18 60.9435C127.254 60.9435 127.347 60.9449 127.457 60.9477C127.568 60.9506 127.652 60.9548 127.709 60.9605V61.9832C127.675 61.9747 127.597 61.9619 127.474 61.9449C127.355 61.925 127.229 61.9151 127.095 61.9151C126.777 61.9151 126.493 61.9818 126.243 62.1153C125.996 62.246 125.8 62.4278 125.655 62.6608C125.513 62.8909 125.442 63.1537 125.442 63.4491V67.5912H124.436ZM130.827 67.7446C130.412 67.7446 130.036 67.6665 129.698 67.5102C129.36 67.3511 129.091 67.1224 128.892 66.8241C128.694 66.523 128.594 66.1594 128.594 65.7332C128.594 65.3582 128.668 65.0543 128.816 64.8213C128.963 64.5855 129.161 64.4008 129.408 64.2673C129.655 64.1338 129.928 64.0344 130.226 63.969C130.527 63.9008 130.83 63.8469 131.134 63.8071C131.532 63.756 131.854 63.7176 132.101 63.692C132.351 63.6636 132.533 63.6168 132.647 63.5514C132.763 63.4861 132.821 63.3724 132.821 63.2105V63.1764C132.821 62.756 132.706 62.4293 132.476 62.1963C132.249 61.9633 131.904 61.8469 131.441 61.8469C130.961 61.8469 130.584 61.952 130.311 62.1622C130.039 62.3724 129.847 62.5969 129.736 62.8355L128.782 62.4946C128.952 62.0969 129.179 61.7872 129.463 61.5656C129.75 61.3412 130.063 61.1849 130.401 61.0969C130.742 61.006 131.077 60.9605 131.407 60.9605C131.617 60.9605 131.858 60.9861 132.131 61.0372C132.407 61.0855 132.672 61.1864 132.928 61.3398C133.186 61.4932 133.401 61.7247 133.571 62.0344C133.742 62.344 133.827 62.7588 133.827 63.2787V67.5912H132.821V66.7048H132.77C132.702 66.8469 132.588 66.9989 132.429 67.1608C132.27 67.3227 132.059 67.4605 131.794 67.5741C131.53 67.6878 131.208 67.7446 130.827 67.7446ZM130.98 66.8412C131.378 66.8412 131.713 66.7631 131.986 66.6068C132.262 66.4506 132.469 66.2489 132.608 66.0017C132.75 65.7545 132.821 65.4946 132.821 65.2219V64.3014C132.779 64.3526 132.685 64.3994 132.54 64.442C132.398 64.4818 132.233 64.5173 132.046 64.5486C131.861 64.577 131.681 64.6026 131.505 64.6253C131.331 64.6452 131.191 64.6622 131.083 64.6764C130.821 64.7105 130.577 64.7659 130.35 64.8426C130.125 64.9165 129.944 65.0287 129.804 65.1793C129.668 65.327 129.6 65.5287 129.6 65.7844C129.6 66.1338 129.729 66.398 129.988 66.577C130.249 66.7531 130.58 66.8412 130.98 66.8412ZM140.129 70.0457V66.5855H140.043C139.969 66.7048 139.864 66.8554 139.728 67.0372C139.592 67.2162 139.397 67.3767 139.144 67.5187C138.891 67.6579 138.555 67.7276 138.134 67.7276C137.589 67.7276 137.107 67.5898 136.69 67.3142C136.272 67.0358 135.945 66.6437 135.71 66.1381C135.474 65.6295 135.356 65.0287 135.356 64.3355C135.356 63.648 135.474 63.0514 135.71 62.5457C135.945 62.0401 136.273 61.6494 136.694 61.3739C137.114 61.0983 137.6 60.9605 138.151 60.9605C138.577 60.9605 138.914 61.0315 139.161 61.1736C139.411 61.3128 139.602 61.4719 139.732 61.6508C139.866 61.827 139.969 61.9719 140.043 62.0855H140.163V61.0457H141.134V70.0457H140.129ZM138.271 66.8241C138.674 66.8241 139.015 66.719 139.293 66.5088C139.572 66.2957 139.783 66.0017 139.928 65.6267C140.073 65.2489 140.146 64.8128 140.146 64.3185C140.146 63.8298 140.075 63.4023 139.933 63.0358C139.79 62.6665 139.58 62.3795 139.302 62.175C139.023 61.9676 138.68 61.8639 138.271 61.8639C137.844 61.8639 137.489 61.9733 137.205 62.192C136.924 62.4079 136.712 62.702 136.57 63.0741C136.431 63.4435 136.362 63.8582 136.362 64.3185C136.362 64.7844 136.433 65.2077 136.575 65.5883C136.719 65.9662 136.933 66.2673 137.214 66.4918C137.498 66.7133 137.85 66.8241 138.271 66.8241ZM144.901 67.7446C144.487 67.7446 144.11 67.6665 143.772 67.5102C143.434 67.3511 143.165 67.1224 142.967 66.8241C142.768 66.523 142.668 66.1594 142.668 65.7332C142.668 65.3582 142.742 65.0543 142.89 64.8213C143.038 64.5855 143.235 64.4008 143.482 64.2673C143.729 64.1338 144.002 64.0344 144.3 63.969C144.602 63.9008 144.904 63.8469 145.208 63.8071C145.606 63.756 145.928 63.7176 146.175 63.692C146.425 63.6636 146.607 63.6168 146.721 63.5514C146.837 63.4861 146.896 63.3724 146.896 63.2105V63.1764C146.896 62.756 146.781 62.4293 146.55 62.1963C146.323 61.9633 145.978 61.8469 145.515 61.8469C145.035 61.8469 144.658 61.952 144.386 62.1622C144.113 62.3724 143.921 62.5969 143.81 62.8355L142.856 62.4946C143.026 62.0969 143.254 61.7872 143.538 61.5656C143.825 61.3412 144.137 61.1849 144.475 61.0969C144.816 61.006 145.151 60.9605 145.481 60.9605C145.691 60.9605 145.933 60.9861 146.205 61.0372C146.481 61.0855 146.746 61.1864 147.002 61.3398C147.261 61.4932 147.475 61.7247 147.646 62.0344C147.816 62.344 147.901 62.7588 147.901 63.2787V67.5912H146.896V66.7048H146.844C146.776 66.8469 146.663 66.9989 146.504 67.1608C146.344 67.3227 146.133 67.4605 145.869 67.5741C145.604 67.6878 145.282 67.7446 144.901 67.7446ZM145.055 66.8412C145.452 66.8412 145.788 66.7631 146.06 66.6068C146.336 66.4506 146.543 66.2489 146.683 66.0017C146.825 65.7545 146.896 65.4946 146.896 65.2219V64.3014C146.853 64.3526 146.759 64.3994 146.614 64.442C146.472 64.4818 146.308 64.5173 146.12 64.5486C145.935 64.577 145.755 64.6026 145.579 64.6253C145.406 64.6452 145.265 64.6622 145.157 64.6764C144.896 64.7105 144.651 64.7659 144.424 64.8426C144.2 64.9165 144.018 65.0287 143.879 65.1793C143.742 65.327 143.674 65.5287 143.674 65.7844C143.674 66.1338 143.803 66.398 144.062 66.577C144.323 66.7531 144.654 66.8412 145.055 66.8412ZM149.737 67.5912V61.0457H150.708V62.0685H150.794C150.93 61.719 151.15 61.4477 151.454 61.2545C151.758 61.0585 152.123 60.9605 152.549 60.9605C152.981 60.9605 153.341 61.0585 153.627 61.2545C153.917 61.4477 154.143 61.719 154.305 62.0685H154.373C154.541 61.7304 154.792 61.4619 155.127 61.2631C155.463 61.0614 155.865 60.9605 156.333 60.9605C156.919 60.9605 157.397 61.1437 157.77 61.5102C158.142 61.8739 158.328 62.4406 158.328 63.2105V67.5912H157.322V63.2105C157.322 62.7275 157.19 62.3824 156.926 62.175C156.662 61.9676 156.35 61.8639 155.993 61.8639C155.532 61.8639 155.176 62.0031 154.923 62.2815C154.67 62.5571 154.544 62.9065 154.544 63.3298V67.5912H153.521V63.1082C153.521 62.7361 153.4 62.4364 153.159 62.2091C152.917 61.979 152.606 61.8639 152.225 61.8639C151.964 61.8639 151.72 61.9335 151.493 62.0727C151.268 62.2119 151.086 62.4051 150.947 62.6523C150.811 62.8966 150.743 63.1793 150.743 63.5003V67.5912H149.737ZM161.172 58.8639V67.5912H160.167V58.8639H161.172ZM164.94 67.7446C164.526 67.7446 164.149 67.6665 163.811 67.5102C163.473 67.3511 163.205 67.1224 163.006 66.8241C162.807 66.523 162.707 66.1594 162.707 65.7332C162.707 65.3582 162.781 65.0543 162.929 64.8213C163.077 64.5855 163.274 64.4008 163.521 64.2673C163.768 64.1338 164.041 64.0344 164.339 63.969C164.641 63.9008 164.943 63.8469 165.247 63.8071C165.645 63.756 165.967 63.7176 166.214 63.692C166.464 63.6636 166.646 63.6168 166.76 63.5514C166.876 63.4861 166.935 63.3724 166.935 63.2105V63.1764C166.935 62.756 166.82 62.4293 166.589 62.1963C166.362 61.9633 166.017 61.8469 165.554 61.8469C165.074 61.8469 164.697 61.952 164.425 62.1622C164.152 62.3724 163.96 62.5969 163.849 62.8355L162.895 62.4946C163.065 62.0969 163.293 61.7872 163.577 61.5656C163.864 61.3412 164.176 61.1849 164.514 61.0969C164.855 61.006 165.19 60.9605 165.52 60.9605C165.73 60.9605 165.972 60.9861 166.244 61.0372C166.52 61.0855 166.786 61.1864 167.041 61.3398C167.3 61.4932 167.514 61.7247 167.685 62.0344C167.855 62.344 167.94 62.7588 167.94 63.2787V67.5912H166.935V66.7048H166.884C166.815 66.8469 166.702 66.9989 166.543 67.1608C166.384 67.3227 166.172 67.4605 165.908 67.5741C165.643 67.6878 165.321 67.7446 164.94 67.7446ZM165.094 66.8412C165.491 66.8412 165.827 66.7631 166.099 66.6068C166.375 66.4506 166.582 66.2489 166.722 66.0017C166.864 65.7545 166.935 65.4946 166.935 65.2219V64.3014C166.892 64.3526 166.798 64.3994 166.653 64.442C166.511 64.4818 166.347 64.5173 166.159 64.5486C165.974 64.577 165.794 64.6026 165.618 64.6253C165.445 64.6452 165.304 64.6622 165.196 64.6764C164.935 64.7105 164.69 64.7659 164.463 64.8426C164.239 64.9165 164.057 65.0287 163.918 65.1793C163.781 65.327 163.713 65.5287 163.713 65.7844C163.713 66.1338 163.842 66.398 164.101 66.577C164.362 66.7531 164.693 66.8412 165.094 66.8412ZM169.776 67.5912V61.0457H170.748V62.0344H170.816C170.935 61.7105 171.151 61.4477 171.463 61.246C171.776 61.0443 172.128 60.9435 172.52 60.9435C172.594 60.9435 172.686 60.9449 172.797 60.9477C172.908 60.9506 172.992 60.9548 173.049 60.9605V61.9832C173.015 61.9747 172.936 61.9619 172.814 61.9449C172.695 61.925 172.569 61.9151 172.435 61.9151C172.117 61.9151 171.833 61.9818 171.583 62.1153C171.336 62.246 171.14 62.4278 170.995 62.6608C170.853 62.8909 170.782 63.1537 170.782 63.4491V67.5912H169.776ZM176.513 67.7276C175.968 67.7276 175.486 67.5898 175.069 67.3142C174.651 67.0358 174.324 66.6437 174.088 66.1381C173.853 65.6295 173.735 65.0287 173.735 64.3355C173.735 63.648 173.853 63.0514 174.088 62.5457C174.324 62.0401 174.652 61.6494 175.073 61.3739C175.493 61.0983 175.979 60.9605 176.53 60.9605C176.956 60.9605 177.293 61.0315 177.54 61.1736C177.79 61.3128 177.98 61.4719 178.111 61.6508C178.245 61.827 178.348 61.9719 178.422 62.0855H178.507V58.8639H179.513V67.5912H178.542V66.5855H178.422C178.348 66.7048 178.243 66.8554 178.107 67.0372C177.971 67.2162 177.776 67.3767 177.523 67.5187C177.27 67.6579 176.934 67.7276 176.513 67.7276ZM176.65 66.8241C177.053 66.8241 177.394 66.719 177.672 66.5088C177.951 66.2957 178.162 66.0017 178.307 65.6267C178.452 65.2489 178.525 64.8128 178.525 64.3185C178.525 63.8298 178.453 63.4023 178.311 63.0358C178.169 62.6665 177.959 62.3795 177.681 62.175C177.402 61.9676 177.059 61.8639 176.65 61.8639C176.223 61.8639 175.868 61.9733 175.584 62.192C175.303 62.4079 175.091 62.702 174.949 63.0741C174.81 63.4435 174.74 63.8582 174.74 64.3185C174.74 64.7844 174.811 65.2077 174.953 65.5883C175.098 65.9662 175.311 66.2673 175.593 66.4918C175.877 66.7133 176.229 66.8241 176.65 66.8241ZM183.421 67.7446C183.006 67.7446 182.63 67.6665 182.292 67.5102C181.953 67.3511 181.685 67.1224 181.486 66.8241C181.287 66.523 181.188 66.1594 181.188 65.7332C181.188 65.3582 181.262 65.0543 181.409 64.8213C181.557 64.5855 181.755 64.4008 182.002 64.2673C182.249 64.1338 182.522 64.0344 182.82 63.969C183.121 63.9008 183.424 63.8469 183.728 63.8071C184.125 63.756 184.448 63.7176 184.695 63.692C184.945 63.6636 185.127 63.6168 185.24 63.5514C185.357 63.4861 185.415 63.3724 185.415 63.2105V63.1764C185.415 62.756 185.3 62.4293 185.07 62.1963C184.843 61.9633 184.498 61.8469 184.034 61.8469C183.554 61.8469 183.178 61.952 182.905 62.1622C182.632 62.3724 182.441 62.5969 182.33 62.8355L181.375 62.4946C181.546 62.0969 181.773 61.7872 182.057 61.5656C182.344 61.3412 182.657 61.1849 182.995 61.0969C183.336 61.006 183.671 60.9605 184 60.9605C184.211 60.9605 184.452 60.9861 184.725 61.0372C185 61.0855 185.266 61.1864 185.522 61.3398C185.78 61.4932 185.995 61.7247 186.165 62.0344C186.336 62.344 186.421 62.7588 186.421 63.2787V67.5912H185.415V66.7048H185.364C185.296 66.8469 185.182 66.9989 185.023 67.1608C184.864 67.3227 184.652 67.4605 184.388 67.5741C184.124 67.6878 183.801 67.7446 183.421 67.7446ZM183.574 66.8412C183.972 66.8412 184.307 66.7631 184.58 66.6068C184.855 66.4506 185.063 66.2489 185.202 66.0017C185.344 65.7545 185.415 65.4946 185.415 65.2219V64.3014C185.373 64.3526 185.279 64.3994 185.134 64.442C184.992 64.4818 184.827 64.5173 184.64 64.5486C184.455 64.577 184.275 64.6026 184.098 64.6253C183.925 64.6452 183.784 64.6622 183.676 64.6764C183.415 64.7105 183.171 64.7659 182.944 64.8426C182.719 64.9165 182.537 65.0287 182.398 65.1793C182.262 65.327 182.194 65.5287 182.194 65.7844C182.194 66.1338 182.323 66.398 182.581 66.577C182.843 66.7531 183.174 66.8412 183.574 66.8412Z" fill="white"/>
        <g clip-path="url(#clip1_3_10786)">
            <path d="M6.89493 22.699H5.44383C5.35279 22.6933 5.13657 22.774 5 23.1428V39.7191C5.04552 39.8272 5.2219 40.0503 5.56333 40.0776C7.59482 39.6281 12.5455 39.1216 16.0964 40.6922C16.3411 41.0279 16.9977 41.7438 17.6669 41.9213H19.3329C19.7003 41.7579 20.5297 41.3 20.9089 40.7758C21.3829 40.1205 26.4158 39.3677 28.981 39.6604C28.1492 38.8054 26.4688 36.9865 26.4019 36.5515C24.9659 36.4957 21.3913 37.2179 18.5807 40.5527H18.3576C17.0099 39.047 13.0766 36.1305 8.12458 36.5097V21.9966C9.65814 22.1267 13.0097 22.6965 14.1473 23.9345V22.5264C13.0645 21.8851 10.1433 20.6304 7.12079 20.7419C7.09105 20.7326 7.00423 20.7558 6.89493 20.9231V22.699Z" fill="white"/>
            <path d="M10.6088 27.0667C10.6067 26.9817 10.6415 26.8143 10.7984 26.8248C10.9554 26.8352 12.7948 26.8291 13.6949 26.8248C13.7974 26.8095 13.9918 26.8365 13.9499 27.0667C13.9081 27.2968 13.9325 33.3173 13.9499 36.2988C13.2917 35.961 11.7034 35.3128 10.6154 35.4227L10.6088 27.0667Z" fill="white"/>
            <path d="M18.5807 39.6604V22.2141C18.5875 22.1258 18.5356 21.9596 18.2739 22.0006H15.6219C15.5352 21.9993 15.3721 22.0448 15.4131 22.2371V36.9077C16.3821 37.5108 18.3722 38.9056 18.5807 39.6604Z" fill="white"/>
            <path d="M19.9934 37.5698V17.3097C20.0254 17.1944 20.1318 16.9714 20.301 17.0021C20.4701 17.0329 22.2821 17.015 23.167 17.0021C23.2425 16.9957 23.3934 17.0445 23.3934 17.2911V35.8299C22.4105 36.1504 20.3545 36.9471 19.9934 37.5698Z" fill="white"/>
            <path d="M28.4201 20.4832C27.7112 20.5873 24.9335 21.6884 24.6993 22.0006V26.2141C24.5956 22.3874 27.3708 21.2436 28.4201 20.4832Z" fill="white"/>
            <path d="M29.6103 20.4832C31.7883 18.4919 39.765 16.4304 44.3252 20.9284V14.4038L37.7862 17.3097C37.6027 17.4736 37.042 17.703 36.2672 17.3097C35.4923 16.9164 31.5064 15.1268 29.6103 14.2811V20.4832Z" fill="white"/>
            <path fill-rule="evenodd" clip-rule="evenodd" d="M36.6701 16.3767L24.787 10.9677C24.5897 10.8885 24.3135 10.6658 24.787 10.408C25.2604 10.1503 32.9063 6.75456 36.6701 5.08892C36.8387 5.00701 37.2668 4.90797 37.6305 5.16708L49.2992 10.3035C49.5252 10.4181 49.8416 10.7418 49.2992 11.1193L47.1109 12.1369V15.3519C47.46 15.6036 47.9804 16.2896 47.2693 17.0203L47.7929 19.4681C47.8294 19.6304 47.8562 19.9722 47.6711 20.0404C47.486 20.1086 47.3261 20.0688 47.2693 20.0404L47.1962 19.2976L47.1109 20.0404H46.6482V17.7144L46.5021 20.0404H45.7957C45.6902 20.0406 45.5108 19.9738 45.6374 19.7057L46.0515 17.203V16.9472C45.7876 16.6915 45.4182 16.0436 46.0515 15.498V12.5266L37.5634 16.3767C37.4387 16.4951 37.0855 16.6608 36.6701 16.3767ZM45.7676 11.4645L44.7716 11.9625C44.7276 11.9845 44.496 11.9457 44.3857 11.9235L37.9578 10.6796H37.7862C37.4872 10.9737 37.0652 10.9369 36.8916 10.8818C36.5198 10.7776 36.3311 10.4461 36.4381 10.0239C36.6648 9.12929 37.6718 9.58069 37.921 9.82784C40.4252 10.3038 45.4421 11.2556 45.4764 11.2556C45.8637 11.2654 45.8319 11.3989 45.7676 11.4645Z" fill="white"/>
            <path d="M40.8399 25.9814H45.3966C45.432 24.4183 44.4714 21.2698 40.8399 19.8086C36.9591 18.2471 28.4679 19.4095 28.4679 25.9814C28.4679 31.7093 35.0911 32.0216 36.972 32.6575C38.853 33.2933 40.8399 33.5582 40.8399 35.6246C40.8399 37.691 38.2172 38.2739 36.972 38.3004C35.7269 38.3269 32.6802 37.7175 32.5743 34.9093H27.9116C27.7703 37.329 29.3846 42.1895 36.972 42.2742C45.7837 42.3727 45.7351 35.8231 45.7747 35.6571C45.8021 35.5419 46.6863 29.948 36.9591 28.5262C32.673 28.1267 31.8407 23.2965 36.972 23.1202C38.2613 23.129 40.8399 23.7137 40.8399 25.9814Z" fill="white"/>
            <path d="M59.4126 26.9184V30.1003H50.2151V26.9184H59.4126ZM52.3032 23.2593H56.539V37.498C56.539 37.8891 56.5986 38.194 56.718 38.4128C56.8373 38.6249 57.003 38.774 57.2151 38.8602C57.4339 38.9464 57.6858 38.9895 57.9708 38.9895C58.1697 38.9895 58.3685 38.9729 58.5674 38.9397C58.7662 38.9 58.9187 38.8701 59.0248 38.8503L59.691 42.0022C59.4788 42.0685 59.1805 42.1448 58.7961 42.2309C58.4116 42.3237 57.9443 42.3801 57.3941 42.4C56.3733 42.4397 55.4784 42.3039 54.7094 41.9923C53.9471 41.6807 53.3538 41.1968 52.9296 40.5406C52.5054 39.8843 52.2965 39.0557 52.3032 38.0548V23.2593ZM66.5269 42.4795C65.5525 42.4795 64.6841 42.3105 63.9218 41.9724C63.1595 41.6277 62.5563 41.1206 62.1121 40.4511C61.6746 39.775 61.4559 38.9331 61.4559 37.9255C61.4559 37.0771 61.6117 36.3645 61.9232 35.7878C62.2348 35.211 62.659 34.747 63.1959 34.3957C63.7329 34.0444 64.3427 33.7792 65.0255 33.6003C65.7149 33.4213 66.4374 33.2953 67.1931 33.2224C68.0814 33.1296 68.7973 33.0434 69.3408 32.9639C69.8844 32.8777 70.2788 32.7518 70.5241 32.586C70.7693 32.4203 70.892 32.1751 70.892 31.8503V31.7906C70.892 31.1609 70.6931 30.6736 70.2954 30.3289C69.9043 29.9842 69.3474 29.8119 68.6249 29.8119C67.8626 29.8119 67.2561 29.9809 66.8053 30.319C66.3546 30.6504 66.0563 31.0681 65.9104 31.5718L61.9928 31.2537C62.1917 30.3256 62.5828 29.5235 63.1661 28.8474C63.7494 28.1646 64.5018 27.641 65.4232 27.2764C66.3512 26.9052 67.4251 26.7196 68.6448 26.7196C69.4933 26.7196 70.3053 26.819 71.0809 27.0179C71.8631 27.2167 72.5558 27.525 73.159 27.9426C73.7689 28.3602 74.2494 28.8971 74.6008 29.5534C74.9521 30.203 75.1278 30.9819 75.1278 31.89V42.1912H71.1107V40.0733H70.9914C70.7461 40.5505 70.418 40.9715 70.007 41.336C69.596 41.694 69.1022 41.9757 68.5255 42.1812C67.9488 42.3801 67.2826 42.4795 66.5269 42.4795ZM67.74 39.5562C68.3631 39.5562 68.9133 39.4336 69.3905 39.1883C69.8678 38.9364 70.2423 38.5984 70.5141 38.1741C70.7859 37.7499 70.9218 37.2693 70.9218 36.7324V35.1116C70.7892 35.1978 70.6069 35.2773 70.3749 35.3503C70.1495 35.4165 69.8943 35.4795 69.6093 35.5392C69.3242 35.5922 69.0392 35.6419 68.7542 35.6883C68.4691 35.7281 68.2106 35.7646 67.9786 35.7977C67.4814 35.8706 67.0473 35.9866 66.676 36.1457C66.3048 36.3048 66.0165 36.5202 65.811 36.792C65.6055 37.0572 65.5028 37.3886 65.5028 37.7863C65.5028 38.363 65.7116 38.8039 66.1292 39.1088C66.5534 39.4071 67.0903 39.5562 67.74 39.5562ZM86.5376 26.9184V30.1003H77.3401V26.9184H86.5376ZM79.4282 23.2593H83.664V37.498C83.664 37.8891 83.7236 38.194 83.843 38.4128C83.9623 38.6249 84.128 38.774 84.3401 38.8602C84.5589 38.9464 84.8108 38.9895 85.0958 38.9895C85.2947 38.9895 85.4935 38.9729 85.6924 38.9397C85.8912 38.9 86.0437 38.8701 86.1498 38.8503L86.816 42.0022C86.6038 42.0685 86.3055 42.1448 85.9211 42.2309C85.5366 42.3237 85.0693 42.3801 84.5191 42.4C83.4983 42.4397 82.6034 42.3039 81.8344 41.9923C81.0721 41.6807 80.4788 41.1968 80.0546 40.5406C79.6304 39.8843 79.4215 39.0557 79.4282 38.0548V23.2593ZM91.7726 42.4497C91.1164 42.4497 90.5529 42.2177 90.0823 41.7537C89.6183 41.283 89.3863 40.7196 89.3863 40.0633C89.3863 39.4137 89.6183 38.8569 90.0823 38.3929C90.5529 37.9289 91.1164 37.6968 91.7726 37.6968C92.409 37.6968 92.9658 37.9289 93.4431 38.3929C93.9204 38.8569 94.159 39.4137 94.159 40.0633C94.159 40.5008 94.0463 40.9019 93.8209 41.2664C93.6022 41.6244 93.3138 41.9128 92.9559 42.1315C92.5979 42.3436 92.2035 42.4497 91.7726 42.4497ZM104.597 42.4895C103.026 42.4895 101.674 42.1713 100.54 41.5349C99.4131 40.8919 98.5448 39.9838 97.9349 38.8105C97.3251 37.6306 97.0202 36.2352 97.0202 34.6244C97.0202 33.0534 97.3251 31.6746 97.9349 30.488C98.5448 29.3015 99.4032 28.3768 100.51 27.7139C101.624 27.051 102.93 26.7196 104.428 26.7196C105.435 26.7196 106.373 26.882 107.242 27.2068C108.117 27.525 108.879 28.0056 109.529 28.6485C110.185 29.2915 110.695 30.1003 111.06 31.0747C111.425 32.0425 111.607 33.176 111.607 34.4753V35.6386H98.7105V33.0136H107.62C107.62 32.4038 107.487 31.8635 107.222 31.3929C106.957 30.9222 106.589 30.5543 106.118 30.2892C105.654 30.0174 105.114 29.8815 104.497 29.8815C103.854 29.8815 103.284 30.0307 102.787 30.3289C102.297 30.6206 101.912 31.015 101.634 31.5122C101.355 32.0027 101.213 32.5496 101.206 33.1528V35.6485C101.206 36.4042 101.345 37.0572 101.624 37.6074C101.909 38.1575 102.31 38.5818 102.827 38.8801C103.344 39.1784 103.957 39.3275 104.666 39.3275C105.137 39.3275 105.568 39.2612 105.959 39.1287C106.35 38.9961 106.685 38.7972 106.963 38.5321C107.242 38.2669 107.454 37.9421 107.6 37.5576L111.517 37.8162C111.318 38.7574 110.911 39.5794 110.294 40.2821C109.684 40.9781 108.896 41.5217 107.928 41.9128C106.967 42.2972 105.856 42.4895 104.597 42.4895ZM119.999 42.4397C118.839 42.4397 117.788 42.1414 116.847 41.5449C115.912 40.9416 115.17 40.0567 114.62 38.89C114.076 37.7167 113.804 36.2783 113.804 34.5747C113.804 32.8247 114.086 31.3697 114.649 30.2096C115.213 29.043 115.962 28.1713 116.897 27.5946C117.838 27.0112 118.869 26.7196 119.989 26.7196C120.844 26.7196 121.557 26.8654 122.127 27.1571C122.703 27.4421 123.167 27.8001 123.519 28.2309C123.877 28.6552 124.148 29.0728 124.334 29.4838H124.463V21.8275H128.689V42.1912H124.513V39.7451H124.334C124.135 40.1694 123.853 40.5903 123.489 41.0079C123.131 41.4189 122.664 41.7603 122.087 42.0321C121.517 42.3039 120.821 42.4397 119.999 42.4397ZM121.341 39.069C122.024 39.069 122.601 38.8834 123.071 38.5122C123.549 38.1343 123.913 37.6074 124.165 36.9312C124.424 36.2551 124.553 35.4629 124.553 34.5548C124.553 33.6467 124.427 32.8578 124.175 32.1883C123.923 31.5188 123.559 31.0018 123.081 30.6372C122.604 30.2726 122.024 30.0903 121.341 30.0903C120.645 30.0903 120.059 30.2792 119.581 30.6571C119.104 31.0349 118.743 31.5586 118.497 32.2281C118.252 32.8976 118.13 33.6732 118.13 34.5548C118.13 35.4431 118.252 36.2286 118.497 36.9113C118.749 37.5875 119.111 38.1178 119.581 38.5022C120.059 38.8801 120.645 39.069 121.341 39.069ZM141.966 35.6883V26.9184H146.202V42.1912H142.135V39.417H141.976C141.631 40.3119 141.058 41.0311 140.256 41.5747C139.46 42.1182 138.489 42.39 137.342 42.39C136.321 42.39 135.423 42.158 134.648 41.694C133.872 41.23 133.266 40.5704 132.828 39.7153C132.397 38.8602 132.178 37.836 132.172 36.6429V26.9184H136.408V35.8872C136.414 36.7887 136.656 37.5013 137.133 38.025C137.611 38.5486 138.25 38.8105 139.052 38.8105C139.563 38.8105 140.04 38.6945 140.484 38.4625C140.928 38.2238 141.286 37.8725 141.558 37.4085C141.837 36.9445 141.972 36.3711 141.966 35.6883ZM152.066 42.4497C151.409 42.4497 150.846 42.2177 150.375 41.7537C149.911 41.283 149.679 40.7196 149.679 40.0633C149.679 39.4137 149.911 38.8569 150.375 38.3929C150.846 37.9289 151.409 37.6968 152.066 37.6968C152.702 37.6968 153.259 37.9289 153.736 38.3929C154.213 38.8569 154.452 39.4137 154.452 40.0633C154.452 40.5008 154.339 40.9019 154.114 41.2664C153.895 41.6244 153.607 41.9128 153.249 42.1315C152.891 42.3436 152.496 42.4497 152.066 42.4497ZM167.724 35.6883V26.9184H171.959V42.1912H167.893V39.417H167.734C167.389 40.3119 166.815 41.0311 166.013 41.5747C165.218 42.1182 164.247 42.39 163.1 42.39C162.079 42.39 161.181 42.158 160.405 41.694C159.63 41.23 159.023 40.5704 158.586 39.7153C158.155 38.8602 157.936 37.836 157.93 36.6429V26.9184H162.165V35.8872C162.172 36.7887 162.414 37.5013 162.891 38.025C163.369 38.5486 164.008 38.8105 164.81 38.8105C165.321 38.8105 165.798 38.6945 166.242 38.4625C166.686 38.2238 167.044 37.8725 167.316 37.4085C167.594 36.9445 167.73 36.3711 167.724 35.6883ZM175.268 42.1912V39.6656L182.745 30.4085V30.2991H175.527V26.9184H187.846V29.6727L180.826 38.7011V38.8105H188.105V42.1912H175.268Z" fill="white"/>
        </g>
    </g>
    <defs>
        <clipPath id="clip0_3_10786">
            <rect width="198" height="89" fill="white"/>
        </clipPath>
        <clipPath id="clip1_3_10786">
            <rect width="187" height="45" fill="white" transform="translate(3 -1)"/>
        </clipPath>
    </defs>
</svg>
