<svg width="49" height="49" viewBox="0 0 49 49" fill="none" xmlns="http://www.w3.org/2000/svg">
    <rect x="-0.00390625" width="49" height="49" rx="24.5" fill="#EBF8E1"/>
    <rect x="6.99609" y="7" width="35" height="35" rx="17.5" fill="#05400E"/>
    <g clip-path="url(#clip0_1139_2459)">
        <path d="M24.4961 16L33.9961 19.6429V20.8571H32.7294C32.7294 21.0216 32.6618 21.1639 32.5266 21.284C32.3913 21.4042 32.2313 21.4643 32.0466 21.4643H16.9456C16.7609 21.4643 16.6009 21.4042 16.4656 21.284C16.3304 21.1639 16.2628 21.0216 16.2628 20.8571H14.9961V19.6429L24.4961 16ZM17.5294 22.0714H20.0628V29.3571H21.3294V22.0714H23.8628V29.3571H25.1294V22.0714H27.6628V29.3571H28.9294V22.0714H31.4628V29.3571H32.0466C32.2313 29.3571 32.3913 29.4172 32.5266 29.5374C32.6618 29.6576 32.7294 29.7999 32.7294 29.9643V30.5714H16.2628V29.9643C16.2628 29.7999 16.3304 29.6576 16.4656 29.5374C16.6009 29.4172 16.7609 29.3571 16.9456 29.3571H17.5294V22.0714ZM33.3133 31.1786C33.498 31.1786 33.658 31.2387 33.7932 31.3588C33.9285 31.479 33.9961 31.6213 33.9961 31.7857V33H14.9961V31.7857C14.9961 31.6213 15.0637 31.479 15.199 31.3588C15.3342 31.2387 15.4942 31.1786 15.6789 31.1786H33.3133Z" fill="white"/>
    </g>
    <defs>
        <clipPath id="clip0_1139_2459">
            <rect width="19" height="17" fill="white" transform="translate(14.9961 16)"/>
        </clipPath>
    </defs>
</svg>
