<svg width="49" height="49" viewBox="0 0 49 49" fill="none" xmlns="http://www.w3.org/2000/svg">
    <rect x="-0.00390625" width="49" height="49" rx="24.5" fill="#EBF8E1"/>
    <circle cx="24.4961" cy="24.5" r="17.5" fill="#05400E"/>
    <path d="M24.4961 23.1224C24.1754 23.1224 23.8726 23.0452 23.6173 22.9087C23.5283 22.8612 23.4392 22.9621 23.4926 23.0452C23.7064 23.3718 24.0745 23.5915 24.4961 23.5915C24.9176 23.5915 25.2858 23.3718 25.4995 23.0452C25.5529 22.9621 25.4579 22.8671 25.3748 22.9087C25.1195 23.0452 24.8226 23.1224 24.4961 23.1224ZM22.2279 21.1037C22.317 20.7355 22.6495 20.4624 23.0473 20.4624C23.457 20.4624 23.8014 20.7533 23.8786 21.1452C23.8831 21.1655 23.8829 21.1865 23.8781 21.2066C23.8733 21.2268 23.864 21.2456 23.8508 21.2616C23.8376 21.2776 23.821 21.2905 23.8022 21.2991C23.7833 21.3077 23.7627 21.312 23.742 21.3115H23.6945C23.7064 21.264 23.7123 21.2165 23.7123 21.169C23.7123 20.8721 23.4748 20.6287 23.172 20.6287C23.0889 20.6288 23.007 20.6481 22.9325 20.6849C22.858 20.7218 22.793 20.7753 22.7425 20.8413C22.692 20.9073 22.6574 20.984 22.6412 21.0656C22.6251 21.1471 22.6279 21.2312 22.6495 21.3115H22.3883C22.2814 21.3115 22.2042 21.2105 22.2279 21.1037Z" fill="white"/>
    <path d="M23.4808 21.163C23.4808 20.9908 23.3442 20.8543 23.172 20.8543C23.1304 20.8536 23.0891 20.8617 23.0509 20.878C23.0654 20.8908 23.0756 20.9077 23.0802 20.9264C23.0849 20.9451 23.0837 20.9649 23.0769 20.9829C23.0701 21.001 23.0579 21.0165 23.042 21.0275C23.0261 21.0384 23.0072 21.0443 22.9879 21.0443C22.9721 21.0442 22.9566 21.0403 22.9427 21.0327C22.9288 21.0251 22.917 21.0142 22.9084 21.0009C22.8806 21.0465 22.8651 21.0986 22.8634 21.152C22.8618 21.2054 22.874 21.2583 22.8989 21.3055H23.4451C23.4689 21.264 23.4808 21.2165 23.4808 21.163ZM26.7701 21.1037C26.6811 20.7355 26.3486 20.4624 25.9508 20.4624C25.5351 20.4624 25.1967 20.7533 25.1195 21.1452C25.1017 21.2343 25.167 21.3115 25.2561 21.3115H25.2976C25.2899 21.2734 25.2859 21.2346 25.2858 21.1957C25.285 21.1245 25.2984 21.0539 25.3253 20.988C25.3521 20.9221 25.3919 20.8622 25.4422 20.8119C25.4926 20.7615 25.5524 20.7218 25.6184 20.6949C25.6843 20.668 25.7549 20.6546 25.8261 20.6554C25.9068 20.6556 25.9865 20.6739 26.0592 20.7088C26.132 20.7438 26.1961 20.7945 26.2467 20.8574C26.2974 20.9203 26.3333 20.9937 26.352 21.0723C26.3706 21.1508 26.3715 21.2325 26.3545 21.3115H26.6098C26.7167 21.3115 26.7939 21.2105 26.7701 21.1037Z" fill="white"/>
    <path d="M25.7137 20.8749C25.7723 20.8506 25.8371 20.8451 25.899 20.8592C25.9608 20.8732 26.0168 20.9062 26.0592 20.9534C26.1016 21.0007 26.1282 21.0599 26.1355 21.123C26.1427 21.186 26.1302 21.2498 26.0996 21.3054H25.5534C25.5275 21.2564 25.5152 21.2013 25.5179 21.146C25.5207 21.0906 25.5382 21.037 25.5688 20.9907C25.5751 21.0035 25.5841 21.0147 25.5953 21.0235C25.6065 21.0324 25.6195 21.0385 25.6334 21.0417C25.6472 21.0448 25.6617 21.0447 25.6755 21.0415C25.6894 21.0383 25.7024 21.0321 25.7135 21.0232C25.7246 21.0143 25.7336 21.003 25.7397 20.9902C25.7459 20.9774 25.7491 20.9633 25.7492 20.9491C25.7492 20.9349 25.746 20.9208 25.7399 20.908C25.7337 20.8952 25.7248 20.8839 25.7137 20.8749Z" fill="white"/>
    <path d="M21.8806 16.5295C22.0605 16.2424 22.3105 16.0059 22.6071 15.8422C22.9036 15.6785 23.237 15.593 23.5758 15.5938C23.8626 15.5938 24.1238 15.6531 24.3607 15.7517L24.3714 15.7558C24.4107 15.7732 24.4532 15.7821 24.4961 15.7821C24.539 15.7821 24.5815 15.7732 24.6208 15.7558L24.6243 15.7547C24.873 15.649 25.1403 15.5942 25.4105 15.5938C26.1408 15.5938 26.7702 15.9856 27.1258 16.5562L27.1294 16.5622C27.2345 16.7355 27.4132 16.8768 27.6287 16.9481L27.6353 16.9505C27.8929 17.0395 28.137 17.182 28.346 17.375H32.4286C32.6364 17.375 32.7967 17.5413 32.7967 17.7431V29.4638C32.7983 29.5123 32.7901 29.5607 32.7726 29.606C32.7551 29.6513 32.7287 29.6927 32.6949 29.7276C32.6611 29.7625 32.6207 29.7902 32.5759 29.8092C32.5312 29.8281 32.4831 29.8378 32.4345 29.8378H31.5593C31.5966 30.1319 31.6152 30.4308 31.6152 30.7344V32.2188C31.6152 32.8731 31.082 33.4063 30.4277 33.4063H17.9648C17.8074 33.4063 17.6563 33.3437 17.545 33.2324C17.4336 33.121 17.3711 32.97 17.3711 32.8125V30.7344C17.3711 30.4304 17.3897 30.1315 17.4269 29.8378H16.5517C16.3498 29.8378 16.1836 29.6716 16.1836 29.4697V17.7431C16.1836 17.5413 16.3498 17.375 16.5517 17.375H20.6415C20.8481 17.185 21.0898 17.0407 21.3516 16.9505C21.5653 16.8763 21.7553 16.7266 21.88 16.5295M25.4497 24.7886C25.8792 24.7075 26.2726 24.4937 26.5743 24.1774C26.8761 23.8611 27.071 23.4581 27.1317 23.0251L27.1781 22.2663C27.1825 22.1951 27.2125 22.128 27.2624 22.077C27.3123 22.0261 27.3789 21.9949 27.45 21.989C27.5216 21.9831 27.5905 21.9667 27.6566 21.9398C27.6872 21.9211 27.7194 21.9052 27.7528 21.8923C27.8553 21.8309 27.9405 21.7443 28.0002 21.6408C28.06 21.5373 28.0924 21.4203 28.0943 21.3008C28.0962 21.1813 28.0675 21.0633 28.0111 20.958C27.9547 20.8527 27.8723 20.7634 27.7718 20.6988C27.7249 20.6823 27.6802 20.66 27.6388 20.6323C27.6055 20.6194 27.5712 20.6094 27.5361 20.6026C27.5079 20.5969 27.4807 20.5871 27.4553 20.5735C27.4534 20.5819 27.4524 20.5905 27.4524 20.5991V21.2581C27.4524 21.8875 26.9418 22.3922 26.3183 22.3922H25.8967C25.7323 22.3926 25.5698 22.357 25.4206 22.288C25.2714 22.2189 25.139 22.1181 25.0328 21.9926L25.0774 22.1369C25.1427 22.3447 24.9883 22.5584 24.7686 22.5584H24.3055C24.0858 22.5584 23.9314 22.3447 23.9968 22.1369L24.0347 22.014C23.8269 22.2461 23.5241 22.3922 23.1892 22.3922H22.7677C22.4669 22.3922 22.1785 22.2727 21.9658 22.06C21.7531 21.8474 21.6336 21.5589 21.6336 21.2581V20.605C21.6329 20.5891 21.6284 20.5736 21.6206 20.5598C21.6128 20.546 21.6018 20.5342 21.5885 20.5254C21.5455 20.5609 21.4935 20.5835 21.4383 20.5908C21.4051 20.5947 21.3723 20.6015 21.3403 20.6109C21.2814 20.6517 21.2156 20.6815 21.1462 20.6988C21.046 20.7641 20.9643 20.8538 20.9085 20.9595C20.8528 21.0652 20.825 21.1834 20.8277 21.3028C20.8305 21.4223 20.8637 21.5391 20.9242 21.6421C20.9847 21.7452 21.0705 21.8311 21.1735 21.8917C21.2269 21.9075 21.2764 21.9293 21.3219 21.957C21.3888 21.978 21.4577 21.9884 21.5285 21.9884C21.6041 21.9883 21.6769 22.0169 21.732 22.0686C21.7872 22.1202 21.8206 22.1909 21.8254 22.2663L21.8765 23.0435C21.9395 23.4728 22.1349 23.8718 22.4354 24.1847C22.736 24.4976 23.1268 24.709 23.5532 24.7892H23.5693V24.7915C23.6888 24.8133 23.8101 24.8244 23.9332 24.8248H25.0708C25.1896 24.8248 25.3064 24.8145 25.4212 24.7939V24.7886H25.4497ZM27.3087 20.0409L27.3188 19.7874C27.3236 19.6328 27.2673 19.4825 27.162 19.3691C27.0568 19.2557 26.9111 19.1884 26.7565 19.1818H25.9175C25.5754 19.1825 25.2404 19.0846 24.9524 18.8999C24.6644 18.7153 24.4357 18.4516 24.2936 18.1403C24.2853 18.1185 24.2708 18.0995 24.2518 18.0859C24.2327 18.0723 24.2101 18.0646 24.1868 18.0638H23.4089C22.9486 18.0642 22.507 18.2463 22.1801 18.5705C21.8533 18.8947 21.6675 19.3348 21.6633 19.7951L21.6799 20.0445C21.6921 20.0424 21.7044 20.0412 21.7168 20.0409H22.3366C22.3038 20.0211 22.2788 19.9904 22.266 19.9543C22.2546 19.9223 22.2536 19.8875 22.2632 19.855C22.2728 19.8225 22.2925 19.7938 22.3194 19.7732C22.6476 19.5429 23.05 19.444 23.4475 19.4959C23.4792 19.4998 23.5089 19.5129 23.5332 19.5335C23.5574 19.5542 23.5751 19.5815 23.5839 19.6121C23.5928 19.6427 23.5924 19.6753 23.583 19.7057C23.5735 19.7361 23.5553 19.7631 23.5307 19.7833C23.514 19.7964 23.495 19.806 23.4746 19.8118C23.4542 19.8175 23.4329 19.8191 23.4119 19.8165C23.0912 19.7761 22.7669 19.8561 22.5017 20.0409H23.7836C23.9617 20.0409 24.128 20.1241 24.2408 20.2606C24.312 20.3497 24.4189 20.4031 24.5436 20.4031C24.6683 20.4031 24.7752 20.3497 24.8464 20.2606C24.9592 20.1241 25.1255 20.0409 25.3036 20.0409H26.4982L26.4822 20.0297C26.2196 19.8563 25.904 19.7816 25.5916 19.8189C25.5496 19.8222 25.5079 19.8091 25.4754 19.7823C25.4429 19.7556 25.422 19.7173 25.4171 19.6754C25.4123 19.6336 25.4239 19.5915 25.4494 19.558C25.475 19.5245 25.5125 19.5022 25.5542 19.4959C25.9516 19.4452 26.3536 19.544 26.6823 19.7732C26.703 19.7895 26.7195 19.8107 26.7302 19.8348C26.741 19.859 26.7457 19.8854 26.7439 19.9117C26.7422 19.9381 26.734 19.9637 26.7202 19.9862C26.7063 20.0087 26.6872 20.0275 26.6645 20.0409H27.3087ZM24.7627 21.1216V20.9019C24.7606 20.8448 24.7365 20.7908 24.6956 20.751C24.6547 20.7112 24.6001 20.6887 24.543 20.6881C24.4243 20.6881 24.3292 20.7772 24.3233 20.8959V21.0907C24.4124 20.8965 24.7003 20.9066 24.7627 21.1216ZM23.6168 25.3978C23.6777 25.5821 23.7952 25.7425 23.9525 25.8563C24.1099 25.9701 24.299 26.0315 24.4932 26.0318C24.6873 26.032 24.8766 25.9712 25.0342 25.8578C25.1919 25.7444 25.3098 25.5843 25.3713 25.4001C25.2723 25.412 25.1728 25.4181 25.0726 25.4185H23.935C23.8281 25.4185 23.7218 25.4116 23.6162 25.3978M26.7998 25.2291L27.2986 26.3014C27.352 26.4042 27.2689 26.5229 27.143 26.5229H26.5154C26.3717 26.5229 26.3058 26.6803 26.402 26.7663L26.5238 26.875H27.3687C27.6358 26.875 27.8496 27.0888 27.8496 27.3559V27.3761H27.8532V28.4188H27.8615C28.3519 28.4188 28.7521 28.8189 28.7521 29.3094V32.2188H30.4265V30.7344C30.4265 28.3297 29.0015 26.2611 26.9489 25.3265C26.8946 25.3017 26.8443 25.2689 26.7998 25.2291ZM27.8496 29.0131V29.6585C27.853 29.6994 27.848 29.7406 27.8347 29.7795C27.8214 29.8184 27.8002 29.8541 27.7724 29.8843C27.7446 29.9146 27.7108 29.9387 27.6732 29.9552C27.6356 29.9718 27.595 29.9803 27.5539 29.9803H26.0398C26.0203 29.9843 26.0004 29.9863 25.9805 29.9863C25.8872 29.9863 25.8219 30.0587 25.8202 30.1299V30.1335C25.8197 30.1591 25.8259 30.1843 25.8381 30.2068C25.8502 30.2292 25.868 30.2482 25.8896 30.2618C25.9305 30.289 25.964 30.326 25.987 30.3695C26.01 30.4129 26.022 30.4613 26.0217 30.5104C26.0214 30.5596 26.0089 30.6079 25.9853 30.651C25.9618 30.6941 25.9279 30.7307 25.8867 30.7575C25.8668 30.7706 25.8504 30.7883 25.8389 30.8091C25.8273 30.8299 25.8209 30.8531 25.8202 30.8769C25.8202 30.9303 25.8451 30.9701 25.8813 30.9927C25.9238 31.019 25.959 31.0556 25.9836 31.0991C26.0082 31.1426 26.0214 31.1916 26.0219 31.2416C26.0225 31.2916 26.0105 31.3409 25.987 31.385C25.9634 31.4291 25.9291 31.4665 25.8872 31.4938C25.8673 31.5068 25.8508 31.5245 25.8391 31.5453C25.8274 31.566 25.8209 31.5893 25.8202 31.6131C25.8202 31.6666 25.8451 31.7063 25.8813 31.7289C25.9224 31.7543 25.9566 31.7894 25.9811 31.8311C26.0056 31.8728 26.0195 31.9198 26.0216 31.968C26.0238 32.0163 26.0141 32.0644 25.9935 32.1081C25.9729 32.1518 25.9419 32.1897 25.9033 32.2188H28.1595V29.3094C28.1593 29.2694 28.1511 29.23 28.1354 29.1933C28.1196 29.1566 28.0967 29.1234 28.0679 29.0957C28.0391 29.068 28.005 29.0464 27.9678 29.0321C27.9305 29.0178 27.8907 29.0112 27.8508 29.0125M27.2606 28.4182V27.385H22.1805C22.0435 27.385 21.9121 27.4395 21.8152 27.5363C21.7183 27.6332 21.6639 27.7646 21.6639 27.9016C21.6639 28.0386 21.7183 28.17 21.8152 28.2669C21.9121 28.3637 22.0435 28.4182 22.1805 28.4182H27.2606ZM25.7151 26.0075C25.5695 26.2049 25.3783 26.364 25.1578 26.4714C24.9373 26.5787 24.694 26.6309 24.4489 26.6237C24.2038 26.6165 23.9641 26.5499 23.7503 26.4298C23.5365 26.3097 23.355 26.1395 23.2213 25.9339V26.875H25.7151V26.0075ZM22.5337 26.7663C22.6293 26.6797 22.5634 26.5229 22.4203 26.5229H21.7922C21.6669 26.5229 21.5832 26.4036 21.6366 26.3008L22.2048 25.2119C22.1555 25.2605 22.098 25.3001 22.035 25.3289C20.9979 25.8013 20.1186 26.5621 19.5022 27.5206C18.8858 28.4791 18.5582 29.5948 18.5586 30.7344V32.2188H20.233V29.3094C20.233 29.0481 20.36 28.8243 20.5198 28.6723C20.6741 28.5262 20.8897 28.4182 21.1177 28.4188V27.9913C21.1177 27.3738 21.6164 26.8691 22.2398 26.875H22.412L22.5337 26.7663ZM21.1177 29.0125C21.0456 29.0187 20.9782 29.051 20.9283 29.1033C20.8985 29.1292 20.8742 29.1608 20.8568 29.1961C20.8393 29.2315 20.8291 29.27 20.8267 29.3094V32.2188H23.083C23.0443 32.1897 23.0134 32.1518 22.9927 32.1081C22.9721 32.0644 22.9625 32.0163 22.9646 31.968C22.9668 31.9198 22.9807 31.8728 23.0052 31.8311C23.0296 31.7894 23.0639 31.7543 23.1049 31.7289C23.1244 31.7167 23.1403 31.6996 23.1511 31.6792C23.1618 31.6589 23.167 31.6361 23.1661 31.6131C23.1653 31.5895 23.1588 31.5663 23.1473 31.5457C23.1357 31.525 23.1193 31.5074 23.0996 31.4944C23.0576 31.4672 23.0231 31.4297 22.9994 31.3856C22.9757 31.3415 22.9636 31.2921 22.9641 31.2421C22.9647 31.192 22.9779 31.1429 23.0025 31.0993C23.0271 31.0557 23.0623 31.019 23.1049 30.9927C23.1244 30.9805 23.1403 30.9633 23.1511 30.943C23.1618 30.9227 23.167 30.8999 23.1661 30.8769C23.1653 30.8532 23.1588 30.8301 23.1473 30.8094C23.1357 30.7888 23.1193 30.7712 23.0996 30.7581C23.0583 30.7314 23.0243 30.6947 23.0006 30.6516C22.977 30.6084 22.9644 30.56 22.9641 30.5107C22.9638 30.4615 22.9758 30.413 22.9989 30.3695C23.0221 30.326 23.0556 30.289 23.0966 30.2618C23.1183 30.2482 23.136 30.2292 23.1482 30.2068C23.1604 30.1843 23.1665 30.1591 23.1661 30.1335V30.1299C23.1643 30.0587 23.099 29.9863 23.0058 29.9863C22.9858 29.9863 22.9659 29.9843 22.9464 29.9803H21.424C21.3473 29.9804 21.2735 29.9507 21.2182 29.8976C21.1629 29.8445 21.1302 29.772 21.1272 29.6953H21.1236V29.0125H21.1177ZM20.0168 18.5625H17.3711V28.6503H17.6804C18.2113 26.9212 19.3784 25.458 20.9461 24.5558C20.784 24.2247 20.6751 23.87 20.6237 23.5049C20.528 23.3172 20.4642 23.115 20.4348 22.9064C19.8316 22.6232 19.429 21.995 19.429 21.292C19.429 20.6697 19.7443 20.1057 20.2353 19.788C20.0352 19.4127 19.9588 18.9838 20.0168 18.5625ZM31.3064 28.6503H31.6152V18.5625H28.9682C29.0291 19.0043 28.9421 19.4538 28.7206 19.8408C28.9479 20.0082 29.1324 20.2269 29.2592 20.479C29.386 20.7312 29.4515 21.0097 29.4503 21.292C29.4525 21.608 29.3706 21.9189 29.2129 22.1928C29.0552 22.4667 28.8275 22.6937 28.5532 22.8506C28.5287 23.0825 28.4616 23.3079 28.3555 23.5156C28.303 23.8751 28.1959 24.2245 28.0378 24.5517C29.6078 25.4538 30.7763 26.9189 31.3064 28.6503ZM23.1423 22.1784C23.6827 22.1784 24.122 21.7391 24.122 21.1988H24.1161V20.7713C24.1161 20.4803 23.8845 20.2488 23.5936 20.2488H22.3586C22.0677 20.2488 21.8361 20.4803 21.8361 20.7713V21.1988C21.8361 21.7391 22.2755 22.1784 22.8158 22.1784H23.1423ZM26.2773 22.1784C26.8177 22.1784 27.257 21.7391 27.257 21.1988V20.7713C27.257 20.4803 27.0255 20.2488 26.7345 20.2488H25.4936C25.2027 20.2488 24.9711 20.4803 24.9711 20.7713V21.1988C24.9711 21.7391 25.4105 22.1784 25.9508 22.1784H26.2773Z" fill="white"/>
</svg>
