<svg width="50" height="49" viewBox="0 0 50 49" fill="none" xmlns="http://www.w3.org/2000/svg">
    <rect x="0.494141" width="49" height="49" rx="24.5" fill="#D5D5D5"/>
    <rect x="7.49414" y="7" width="35" height="35" rx="17.5" fill="#626262"/>
    <path d="M18.2441 22.8398L15.6904 23.5576C15.4541 23.6239 15.2459 23.7656 15.0976 23.9612C14.9493 24.1568 14.8691 24.3955 14.8691 24.641V33.5003C14.8691 33.7987 14.9877 34.0849 15.1986 34.2958C15.4096 34.5068 15.6958 34.6253 15.9941 34.6253H18.2441V22.8398ZM31.7441 22.8398L34.2979 23.5576C34.5342 23.6239 34.7424 23.7656 34.8907 23.9612C35.0389 24.1568 35.1192 24.3955 35.1191 24.641V33.5003C35.1191 33.7987 35.0006 34.0849 34.7896 34.2958C34.5787 34.5068 34.2925 34.6253 33.9941 34.6253H31.7441V22.8398Z" fill="white"/>
    <path fill-rule="evenodd" clip-rule="evenodd" d="M25.6187 14.5642C25.4338 14.4408 25.2165 14.375 24.9943 14.375C24.772 14.375 24.5548 14.4408 24.3699 14.5642L17.6199 19.0642C17.3717 19.2298 17.1994 19.4872 17.1409 19.7798C17.0825 20.0724 17.1427 20.3763 17.3083 20.6245C17.4739 20.8728 17.7313 21.0451 18.0239 21.1035C18.3166 21.162 18.6204 21.1018 18.8687 20.9362L20.4943 19.8528V34.6252H29.4943V19.8528L31.1199 20.9362C31.3048 21.0595 31.5221 21.1252 31.7443 21.1252C31.9861 21.126 32.2218 21.0488 32.4163 20.9051C32.6108 20.7613 32.7537 20.5586 32.8239 20.3272C32.894 20.0957 32.8876 19.8478 32.8056 19.6202C32.7236 19.3927 32.5703 19.1977 32.3687 19.0642L25.6187 14.5642ZM22.7443 24.5002C22.7443 24.2018 22.8628 23.9157 23.0738 23.7047C23.2848 23.4937 23.5709 23.3752 23.8693 23.3752H26.1193C26.4177 23.3752 26.7038 23.4937 26.9148 23.7047C27.1258 23.9157 27.2443 24.2018 27.2443 24.5002C27.2443 24.7985 27.1258 25.0847 26.9148 25.2957C26.7038 25.5066 26.4177 25.6252 26.1193 25.6252H23.8693C23.5709 25.6252 23.2848 25.5066 23.0738 25.2957C22.8628 25.0847 22.7443 24.7985 22.7443 24.5002ZM23.8693 20.0002C23.5709 20.0002 23.2848 20.1187 23.0738 20.3297C22.8628 20.5407 22.7443 20.8268 22.7443 21.1252C22.7443 21.4235 22.8628 21.7097 23.0738 21.9207C23.2848 22.1316 23.5709 22.2502 23.8693 22.2502H26.1193C26.4177 22.2502 26.7038 22.1316 26.9148 21.9207C27.1258 21.7097 27.2443 21.4235 27.2443 21.1252C27.2443 20.8268 27.1258 20.5407 26.9148 20.3297C26.7038 20.1187 26.4177 20.0002 26.1193 20.0002H23.8693Z" fill="white"/>
</svg>
