<svg width="50" height="49" viewBox="0 0 50 49" fill="none" xmlns="http://www.w3.org/2000/svg">
    <rect x="0.494141" width="49" height="49" rx="24.5" fill="#D5D5D5"/>
    <circle cx="24.9941" cy="24.5" r="17.5" fill="#626262"/>
    <g clip-path="url(#clip0_1858_4382)">
        <path d="M24.9941 13.7266L11.4941 20.0266L15.0941 21.6466V24.7066C14.0141 25.0666 13.2941 26.1466 13.2941 27.2266C13.2941 28.3066 14.0141 29.3866 15.0941 29.7466V29.9266L13.4741 33.7066C12.9341 35.3266 13.2941 37.1266 15.9941 37.1266C18.6941 37.1266 19.0541 35.3266 18.5141 33.7066L16.8941 29.9266C17.9741 29.3866 18.6941 28.4866 18.6941 27.2266C18.6941 25.9666 17.9741 25.0666 16.8941 24.7066V22.5466L24.9941 26.3266L38.4941 20.0266L24.9941 13.7266ZM32.9141 25.4266L24.8141 29.0266L20.4941 27.0466V27.2266C20.4941 28.4866 19.9541 29.5666 19.0541 30.4666L20.1341 32.9866V33.1666C20.3141 33.8866 20.4941 34.6066 20.3141 35.3266C21.5741 35.8666 23.0141 36.2266 24.8141 36.2266C30.7541 36.2266 32.9141 32.6266 32.9141 30.8266V25.4266Z" fill="white"/>
    </g>
    <defs>
        <clipPath id="clip0_1858_4382">
            <rect width="27" height="27" fill="white" transform="translate(11.4941 11.9268)"/>
        </clipPath>
    </defs>
</svg>
