<svg width="37" height="36" viewBox="0 0 37 36" fill="none" xmlns="http://www.w3.org/2000/svg">
    <path d="M17.105 3.92929C17.5104 3.64053 17.9959 3.48535 18.4937 3.48535C18.9915 3.48535 19.4769 3.64053 19.8824 3.92929L30.416 11.4029C31.7246 12.3317 31.0694 14.3945 29.4656 14.3981H7.52716C5.91796 14.3981 5.25916 12.3335 6.57316 11.4029L17.105 3.92929ZM18.4946 10.5731C18.8925 10.5731 19.2741 10.415 19.5554 10.1337C19.8368 9.8523 19.9949 9.47069 19.9949 9.07279C19.9949 8.67488 19.8368 8.29328 19.5554 8.01192C19.2741 7.73056 18.8925 7.57249 18.4946 7.57249C18.0967 7.57249 17.715 7.73056 17.4337 8.01192C17.1523 8.29328 16.9943 8.67488 16.9943 9.07279C16.9943 9.47069 17.1523 9.8523 17.4337 10.1337C17.715 10.415 18.0967 10.5731 18.4946 10.5731ZM8.59456 16.1999V23.3999H12.1946V16.1999H8.59456ZM5.89456 29.0987C5.89456 26.9441 7.64056 25.1981 9.79336 25.1981H27.194C28.228 25.1995 29.2193 25.6109 29.9505 26.3421C30.6817 27.0733 31.0931 28.0646 31.0946 29.0987V29.6981C31.0946 29.9368 30.9997 30.1657 30.831 30.3345C30.6622 30.5033 30.4333 30.5981 30.1946 30.5981H6.79456C6.55587 30.5981 6.32695 30.5033 6.15817 30.3345C5.98938 30.1657 5.89456 29.9368 5.89456 29.6981V29.0987ZM28.3946 16.1981V23.3981H24.7946V16.1999L28.3946 16.1981ZM22.9946 16.1981V23.3981H19.3946V16.1999L22.9946 16.1981ZM17.5946 16.1981V23.3981H13.9946V16.1999L17.5946 16.1981Z" fill="#122964"/>
</svg>
