<svg width="22" height="22" viewBox="0 0 22 22" fill="none" xmlns="http://www.w3.org/2000/svg">
    <path d="M11.8814 17.8882C11.8814 17.8882 10.6151 19.6129 10.1611 19.6137C9.70708 19.6137 8.43556 17.8943 8.43556 17.8943M13.5802 4.10485C13.5802 4.10485 12.3087 2.38538 11.8547 2.38538C11.4007 2.38538 10.1352 4.10916 10.1352 4.10916M11.741 2.5792C11.9925 3.79386 12.0942 6.07243 9.98189 7.20439C9.23931 7.67302 7.99363 7.58774 6.57567 7.59032C5.99849 7.62047 4.94751 8.11409 4.9768 9.3477C5.00522 10.5796 6.01916 10.9836 6.52226 11.031L15.2308 11.0155C15.9639 11.0017 17.0373 11.4255 17.0398 12.7307C17.0424 14.0056 15.913 14.5061 15.0654 14.3976C12.7704 14.1047 10.3661 14.8042 10.1611 17.8176L10.1645 19.6146" stroke="white" stroke-width="1.5" stroke-linecap="round" stroke-linejoin="round"/>
</svg>
