<svg width="45" height="41" viewBox="0 0 45 41" fill="none" xmlns="http://www.w3.org/2000/svg">
    <path d="M44.7825 26.849L44.055 26.1738C43.703 26.5415 43.271 26.8359 42.7875 27.0374C42.304 27.239 41.78 27.3432 41.25 27.3432C40.72 27.3432 40.196 27.239 39.7125 27.0374C39.229 26.8359 38.797 26.5415 38.445 26.1738L37.7175 26.849C37.5793 26.9817 37.5015 27.1587 37.5 27.3432V34.3039C37.5006 34.4883 37.5798 34.665 37.7203 34.7954C37.8608 34.9259 38.0513 34.9994 38.25 34.9999H44.25C44.4487 34.9994 44.6392 34.9259 44.7797 34.7954C44.9202 34.665 44.9994 34.4883 45 34.3039V27.3432C44.9985 27.1587 44.9207 26.9817 44.7825 26.849Z" fill="#00A708"/>
    <path d="M32.5 22.3911L21.5602 26.8252C21.2674 26.9448 20.9482 27.0068 20.625 27.0068C20.3018 27.0068 19.9826 26.9448 19.6898 26.8252L8.75 22.3911V25.1203L20.625 29.9563L32.5 25.1138V22.3911Z" fill="#00A708"/>
    <path d="M20.3133 32.1313L8.75 27.4346V29.8314C8.75111 29.9547 8.79207 30.0752 8.8682 30.1792C8.94432 30.2832 9.05254 30.3664 9.18047 30.4193L20.3133 34.9416C20.4113 34.98 20.5175 34.9998 20.625 34.9998C20.7325 34.9998 20.8387 34.98 20.9367 34.9416L32.0695 30.4193C32.1975 30.3664 32.3057 30.2832 32.3818 30.1792C32.4579 30.0752 32.4989 29.9547 32.5 29.8314V27.4346L20.9367 32.1313C20.8401 32.1738 20.7333 32.1959 20.625 32.1959C20.5167 32.1959 20.4099 32.1738 20.3133 32.1313Z" fill="#00A708"/>
    <path d="M21.25 26.1739C21.3561 26.1739 21.461 26.1518 21.5578 26.1091L41.0345 17.2181V20.482C41.5181 20.3859 42.0164 20.3859 42.5 20.482V16.087C42.4992 15.8961 42.4217 15.7133 42.2844 15.5784C42.1472 15.4435 41.9613 15.3673 41.7672 15.3665H21.25C21.0557 15.3665 20.8693 15.2906 20.7319 15.1554C20.5945 15.0203 20.5173 14.8371 20.5173 14.646C20.5173 14.4549 20.5945 14.2716 20.7319 14.1365C20.8693 14.0014 21.0557 13.9255 21.25 13.9255H38.7776L21.5578 6.06485C21.461 6.0221 21.3561 6 21.25 6C21.1439 6 21.039 6.0221 20.9423 6.06485L0.425019 15.4313C0.298037 15.4895 0.190581 15.5821 0.11529 15.6982C0.0399977 15.8144 0 15.9492 0 16.087C0 16.2247 0.0399977 16.3596 0.11529 16.4757C0.190581 16.5919 0.298037 16.6845 0.425019 16.7426L20.9423 26.1091C21.039 26.1518 21.1439 26.1739 21.25 26.1739Z" fill="#00A708"/>
    <path d="M41.25 26.1737C42.6307 26.1737 43.75 25.327 43.75 24.2824C43.75 23.2379 42.6307 22.3911 41.25 22.3911C39.8693 22.3911 38.75 23.2379 38.75 24.2824C38.75 25.327 39.8693 26.1737 41.25 26.1737Z" fill="#00A708"/>
</svg>
