<svg width="41" height="41" viewBox="0 0 41 41" fill="none" xmlns="http://www.w3.org/2000/svg">
    <path d="M21.9492 4.70041C21.1486 3.89983 19.8506 3.89983 19.05 4.70041L4.70004 19.0504C3.89947 19.851 3.89947 21.149 4.70004 21.9495C5.50062 22.7501 6.7986 22.7501 7.59918 21.9495L8.19961 21.3491V34.85C8.19961 35.9822 9.11743 36.9 10.2496 36.9H14.3496C15.4818 36.9 16.3996 35.9822 16.3996 34.85V30.75C16.3996 29.6178 17.3174 28.7 18.4496 28.7H22.5496C23.6818 28.7 24.5996 29.6178 24.5996 30.75V34.85C24.5996 35.9822 25.5174 36.9 26.6496 36.9H30.7496C31.8818 36.9 32.7996 35.9822 32.7996 34.85V21.3491L33.4 21.9495C34.2006 22.7501 35.4986 22.7501 36.2992 21.9495C37.0998 21.149 37.0998 19.851 36.2992 19.0504L21.9492 4.70041Z" fill="#00A708"/>
</svg>
