<svg width="41" height="41" viewBox="0 0 41 41" fill="none" xmlns="http://www.w3.org/2000/svg">
    <g clip-path="url(#clip0_1681_803)">
        <path d="M27.0839 10.4994C26.5506 9.96377 25.8995 9.56012 25.1825 9.32069L22.8285 8.55706C22.6477 8.49273 22.4913 8.37404 22.3807 8.21728C22.2701 8.06053 22.2108 7.87339 22.2108 7.68154C22.2108 7.4897 22.2701 7.30256 22.3807 7.1458C22.4913 6.98905 22.6477 6.87036 22.8285 6.80602L25.1825 6.04069C25.8791 5.80013 26.5118 5.40404 27.0325 4.88249C27.5531 4.36093 27.9481 3.72761 28.1875 3.03061L28.2063 2.97252L28.9716 0.620148C29.0352 0.438234 29.1539 0.280599 29.311 0.169066C29.4682 0.0575333 29.6561 -0.00238037 29.8489 -0.00238037C30.0416 -0.00238037 30.2295 0.0575333 30.3867 0.169066C30.5439 0.280599 30.6625 0.438234 30.7261 0.620148L31.4897 2.97252C31.7284 3.68753 32.1304 4.33708 32.6639 4.86966C33.1974 5.40223 33.8476 5.80318 34.563 6.04069L36.9154 6.80602L36.9632 6.81798C37.1439 6.88231 37.3003 7.001 37.4109 7.15776C37.5215 7.31452 37.5809 7.50166 37.5809 7.6935C37.5809 7.88534 37.5215 8.07248 37.4109 8.22924C37.3003 8.386 37.1439 8.50469 36.9632 8.56902L34.6091 9.33436C33.894 9.57209 33.2442 9.97314 32.711 10.5057C32.1778 11.0383 31.7761 11.6877 31.5375 12.4025L30.7722 14.7549C30.709 14.937 30.5907 15.0949 30.4336 15.2067C30.2766 15.3184 30.0886 15.3785 29.8958 15.3785C29.7031 15.3785 29.5151 15.3184 29.358 15.2067C29.201 15.0949 29.0826 14.937 29.0195 14.7549L28.2541 12.4025C28.0174 11.6858 27.6167 11.0341 27.0839 10.4994ZM40.6293 17.4472L39.3207 17.0236C38.9236 16.8908 38.5629 16.6675 38.267 16.3713C37.9711 16.0751 37.7481 15.7141 37.6158 15.3169L37.1887 14.0118C37.1533 13.9109 37.0875 13.8234 37.0003 13.7616C36.913 13.6997 36.8088 13.6665 36.7018 13.6665C36.5949 13.6665 36.4906 13.6997 36.4034 13.7616C36.3162 13.8234 36.2503 13.9109 36.215 14.0118L35.7913 15.3169C35.6614 15.7116 35.4421 16.0709 35.1505 16.3669C34.8589 16.663 34.5029 16.8877 34.1103 17.0236L32.8034 17.4472C32.7025 17.4826 32.6151 17.5484 32.5532 17.6357C32.4914 17.7229 32.4582 17.8272 32.4582 17.9341C32.4582 18.041 32.4914 18.1453 32.5532 18.2325C32.6151 18.3198 32.7025 18.3856 32.8034 18.421L34.1103 18.8464C34.5085 18.9792 34.8703 19.203 35.1669 19.5002C35.4635 19.7974 35.6866 20.1596 35.8186 20.5581L36.2423 21.8633C36.2777 21.9642 36.3435 22.0516 36.4307 22.1135C36.518 22.1753 36.6222 22.2085 36.7292 22.2085C36.8361 22.2085 36.9404 22.1753 37.0276 22.1135C37.1148 22.0516 37.1807 21.9642 37.216 21.8633L37.6414 20.5581C37.7739 20.1607 37.9971 19.7996 38.2934 19.5034C38.5896 19.2072 38.9507 18.984 39.348 18.8515L40.6549 18.4278C40.7558 18.3924 40.8433 18.3266 40.9051 18.2394C40.967 18.1522 41.0002 18.0479 41.0002 17.9409C41.0002 17.834 40.967 17.7297 40.9051 17.6425C40.8433 17.5553 40.7558 17.4894 40.6549 17.4541L40.6293 17.4472ZM8.96875 5.12502H22.2886C21.7656 5.31279 21.3097 5.65097 20.9783 6.09706C20.6668 6.54607 20.4999 7.07952 20.4999 7.62602C20.4999 8.17252 20.6668 8.70598 20.9783 9.15498C21.2602 9.64186 21.6924 10.0262 22.2083 10.2483L24.6 11.0341C25.0613 11.1896 25.4815 11.4476 25.83 11.7858L26.1375 11.9566C26.3539 12.2425 26.519 12.5557 26.6329 12.8962L27.3333 15.3733C27.5144 15.9029 27.8544 16.3624 28.3071 16.6887C28.5349 16.8459 28.7797 16.9655 29.0417 17.0475V23.9167H35.875V30.3229C35.875 31.7954 35.2901 33.2076 34.2488 34.2489C33.2076 35.2901 31.7954 35.875 30.3229 35.875H10.6771C9.20458 35.875 7.79239 35.2901 6.75117 34.2489C5.70995 33.2076 5.125 31.7954 5.125 30.3229V8.96877C5.125 7.94935 5.52997 6.97167 6.25081 6.25083C6.97165 5.52999 7.94932 5.12502 8.96875 5.12502ZM29.0417 33.3125H30.3229C31.1158 33.3125 31.8762 32.9975 32.4369 32.4369C32.9975 31.8762 33.3125 31.1158 33.3125 30.3229V26.4792H29.0417V33.3125ZM11.1042 13.2396C11.1042 13.9469 11.6782 14.5209 12.3854 14.5209H21.7812C22.1211 14.5209 22.4469 14.3859 22.6872 14.1456C22.9275 13.9053 23.0625 13.5794 23.0625 13.2396C23.0625 12.8998 22.9275 12.5739 22.6872 12.3336C22.4469 12.0933 22.1211 11.9584 21.7812 11.9584H12.3854C12.0456 11.9584 11.7197 12.0933 11.4794 12.3336C11.2392 12.5739 11.1042 12.8998 11.1042 13.2396ZM12.3854 18.7917C12.0456 18.7917 11.7197 18.9267 11.4794 19.167C11.2392 19.4072 11.1042 19.7331 11.1042 20.0729C11.1042 20.4127 11.2392 20.7386 11.4794 20.9789C11.7197 21.2192 12.0456 21.3542 12.3854 21.3542H21.7812C22.1211 21.3542 22.4469 21.2192 22.6872 20.9789C22.9275 20.7386 23.0625 20.4127 23.0625 20.0729C23.0625 19.7331 22.9275 19.4072 22.6872 19.167C22.4469 18.9267 22.1211 18.7917 21.7812 18.7917H12.3854ZM11.1042 26.9063C11.1042 27.6135 11.6782 28.1875 12.3854 28.1875H17.5104C17.8502 28.1875 18.1761 28.0525 18.4164 27.8123C18.6567 27.572 18.7917 27.2461 18.7917 26.9063C18.7917 26.5665 18.6567 26.2406 18.4164 26.0003C18.1761 25.76 17.8502 25.625 17.5104 25.625H12.3854C12.0456 25.625 11.7197 25.76 11.4794 26.0003C11.2392 26.2406 11.1042 26.5665 11.1042 26.9063Z" fill="#00A708"/>
    </g>
    <defs>
        <clipPath id="clip0_1681_803">
            <rect width="41" height="41" fill="white"/>
        </clipPath>
    </defs>
</svg>
