<svg width="41" height="41" viewBox="0 0 41 41" fill="none" xmlns="http://www.w3.org/2000/svg">
    <path d="M24.875 8.7666H13.9375V11.9666H24.875V8.7666Z" fill="#00A708"/>
    <path d="M16.125 32.2333V30.6333C16.1249 30.3532 16.1814 30.0757 16.2913 29.8168C16.4012 29.558 16.5624 29.3228 16.7655 29.1247C16.9687 28.9265 17.2098 28.7694 17.4753 28.6622C17.7407 28.555 18.0252 28.4999 18.3125 28.5H31.9843V18.052L31.0929 19.124C30.1733 20.2248 28.9403 21.0357 27.5492 21.4547L27.057 24.3187C27.039 24.4298 26.9854 24.5325 26.9039 24.612C26.8223 24.6915 26.717 24.7438 26.6031 24.7613L20.0406 25.828C20.0117 25.8324 19.9824 25.8342 19.9531 25.8333C19.8736 25.8339 19.795 25.8175 19.7227 25.7853C19.6505 25.7531 19.5863 25.7059 19.5347 25.6469C19.4831 25.588 19.4454 25.5188 19.4241 25.4441C19.4029 25.3694 19.3986 25.2911 19.4117 25.2147L20.5055 18.8147C20.5234 18.7036 20.577 18.6009 20.6586 18.5213C20.7401 18.4418 20.8454 18.3895 20.9594 18.372L23.8961 17.892C24.3256 16.5353 25.1571 15.3328 26.2859 14.436L31.9843 9.93467V8.23333C31.9847 7.74296 31.8859 7.25734 31.6937 6.80422C31.5014 6.35111 31.2195 5.93941 30.8639 5.59267C30.5084 5.24592 30.0862 4.97094 29.6216 4.78345C29.157 4.59596 28.659 4.49964 28.1562 4.5H5.73438C6.23719 4.49964 6.73515 4.59596 7.19977 4.78345C7.66438 4.97094 8.08654 5.24592 8.44209 5.59267C8.79763 5.93941 9.0796 6.35111 9.27185 6.80422C9.4641 7.25734 9.56286 7.74296 9.5625 8.23333V32.2333C9.56381 33.0816 9.90993 33.8948 10.525 34.4947C11.1401 35.0945 11.9739 35.4321 12.8437 35.4333C13.7138 35.4327 14.548 35.0953 15.1632 34.4953C15.7784 33.8954 16.1243 33.0818 16.125 32.2333ZM12.8437 8.23333C12.8442 8.09202 12.9019 7.9566 13.0044 7.85668C13.1069 7.75675 13.2457 7.70042 13.3906 7.7H25.4219C25.5668 7.70042 25.7056 7.75675 25.8081 7.85668C25.9105 7.9566 25.9683 8.09202 25.9687 8.23333V12.5C25.9683 12.6413 25.9105 12.7767 25.8081 12.8767C25.7056 12.9766 25.5668 13.0329 25.4219 13.0333H13.3906C13.2457 13.0329 13.1069 12.9766 13.0044 12.8767C12.9019 12.7767 12.8442 12.6413 12.8437 12.5V8.23333ZM13.3906 15.1667H21.0469C21.1919 15.1667 21.331 15.2229 21.4336 15.3229C21.5361 15.4229 21.5937 15.5586 21.5937 15.7C21.5937 15.8414 21.5361 15.9771 21.4336 16.0771C21.331 16.1771 21.1919 16.2333 21.0469 16.2333H13.3906C13.2456 16.2333 13.1065 16.1771 13.0039 16.0771C12.9014 15.9771 12.8437 15.8414 12.8437 15.7C12.8437 15.5586 12.9014 15.4229 13.0039 15.3229C13.1065 15.2229 13.2456 15.1667 13.3906 15.1667ZM13.3906 18.3667H16.6719C16.8169 18.3667 16.956 18.4229 17.0586 18.5229C17.1611 18.6229 17.2187 18.7586 17.2187 18.9C17.2187 19.0414 17.1611 19.1771 17.0586 19.2771C16.956 19.3771 16.8169 19.4333 16.6719 19.4333H13.3906C13.2456 19.4333 13.1065 19.3771 13.0039 19.2771C12.9014 19.1771 12.8437 19.0414 12.8437 18.9C12.8437 18.7586 12.9014 18.6229 13.0039 18.5229C13.1065 18.4229 13.2456 18.3667 13.3906 18.3667ZM13.3906 21.5667H16.6719C16.8169 21.5667 16.956 21.6229 17.0586 21.7229C17.1611 21.8229 17.2187 21.9585 17.2187 22.1C17.2187 22.2414 17.1611 22.3771 17.0586 22.4771C16.956 22.5771 16.8169 22.6333 16.6719 22.6333H13.3906C13.2456 22.6333 13.1065 22.5771 13.0039 22.4771C12.9014 22.3771 12.8437 22.2414 12.8437 22.1C12.8437 21.9585 12.9014 21.8229 13.0039 21.7229C13.1065 21.6229 13.2456 21.5667 13.3906 21.5667ZM13.3906 24.7667H16.6719C16.8169 24.7667 16.956 24.8229 17.0586 24.9229C17.1611 25.0229 17.2187 25.1586 17.2187 25.3C17.2187 25.4414 17.1611 25.5771 17.0586 25.6771C16.956 25.7771 16.8169 25.8333 16.6719 25.8333H13.3906C13.2456 25.8333 13.1065 25.7771 13.0039 25.6771C12.9014 25.5771 12.8437 25.4414 12.8437 25.3C12.8437 25.1586 12.9014 25.0229 13.0039 24.9229C13.1065 24.8229 13.2456 24.7667 13.3906 24.7667Z" fill="#00A708"/>
    <path d="M5.73437 5.56665C5.00917 5.56665 4.31367 5.8476 3.80088 6.3477C3.28808 6.8478 3 7.52607 3 8.23332L3 12.5C3 12.9243 3.17285 13.3313 3.48053 13.6314C3.7882 13.9314 4.2055 14.1 4.64062 14.1H8.46874V8.23332C8.46874 7.52607 8.18066 6.8478 7.66786 6.3477C7.15507 5.8476 6.45957 5.56665 5.73437 5.56665Z" fill="#00A708"/>
    <path d="M34.7187 29.5667H18.3125C18.0224 29.5667 17.7442 29.679 17.5391 29.8791C17.334 30.0791 17.2187 30.3504 17.2187 30.6333V32.2333C17.2187 33.3649 16.7578 34.4501 15.9373 35.2503C15.1169 36.0505 14.0041 36.5 12.8438 36.5H31.9844C32.9996 36.5 33.9733 36.1067 34.6912 35.4065C35.4092 34.7064 35.8125 33.7568 35.8125 32.7666V30.6333C35.8125 30.3504 35.6972 30.0791 35.4921 29.8791C35.287 29.679 35.0088 29.5667 34.7187 29.5667Z" fill="#00A708"/>
    <path d="M21.55 24.4999L26.0398 23.7693L26.4773 21.2199V21.2146L24.1422 18.9373H24.1367L21.5227 19.3639L20.7734 23.7426L22.8461 21.7213C22.9492 21.6215 23.0887 21.5657 23.2339 21.566C23.3792 21.5662 23.5184 21.6226 23.6211 21.7228C23.7238 21.823 23.7816 21.9587 23.7819 22.1004C23.7822 22.242 23.7249 22.378 23.6227 22.4786L21.55 24.4999Z" fill="#00A708"/>
    <path d="M27.2264 20.436C28.4114 20.0825 29.462 19.3939 30.2451 18.4573L31.4209 17.0386L28.424 14.116L26.9693 15.2626C26.0073 16.0248 25.3007 17.05 24.9404 18.2066V18.212L27.2209 20.436H27.2264Z" fill="#00A708"/>
    <path d="M35.6047 11.9934L33.5703 10.0574L31.9844 11.3054L29.2773 13.444L32.1102 16.2067L35.6047 11.9934Z" fill="#00A708"/>
    <path d="M36.934 7.69999C36.6883 7.69785 36.4499 7.78104 36.2613 7.93466L34.4238 9.38532L36.2996 11.1613L37.7598 9.39599C37.9173 9.21211 38.0026 8.97958 38.0004 8.73999C37.9991 8.46456 37.8863 8.20076 37.6866 8.006C37.4869 7.81123 37.2164 7.70125 36.934 7.69999Z" fill="#00A708"/>
</svg>
