<svg width="55" height="49" viewBox="0 0 55 49" fill="none" xmlns="http://www.w3.org/2000/svg">
    <path d="M0.859375 0.984371V42.5757L12.5244 36.1183V29.7303C11.792 29.7303 9.6649 28.8734 9.6649 26.7207C9.6649 25.0805 10.28 23.0047 12.9196 23.0047C15.5592 23.0047 16.6868 24.7986 16.6868 26.7207C16.4818 29.2322 14.9442 29.7303 13.9825 29.7303V36.8126L0.859375 44.3116C4.72321 44.6804 5.48002 44.3987 6.20584 44.3116C18.7041 42.8118 25.2078 46.1863 26.8974 48.061V22.1619C22.5924 21.6065 23.4092 15.0426 28.2166 15.5656C31.9073 15.9672 32.0493 21.7185 28.2166 22.1619V48.061C32.6604 43.4089 43.7005 43.9644 47.1028 44.3116C49.8247 44.5893 53.1436 44.1959 54.4629 43.9644L41.2703 36.8821V29.7997C40.2751 29.4526 38.6545 28.818 38.6545 26.4488C38.6545 24.8433 39.6553 23.3033 41.6689 23.3033C43.6825 23.3033 45.2975 24.6139 45.2975 26.6752C45.2975 28.7364 43.5617 29.6146 42.659 29.7997V36.1877L54.4629 42.4368V0.637207C53.4214 1.10011 49.4775 1.81761 42.0341 0.984371C34.5907 0.151136 29.3044 3.64604 27.5917 5.49765C27.638 5.61336 27.675 5.7337 27.4528 5.28932C27.1751 4.73384 20.3011 0.151156 14.538 0.984371C9.92753 1.65094 3.49789 1.26211 0.859375 0.984371Z" fill="white"/>
    <circle cx="27.6614" cy="18.8427" r="2.23662" fill="white"/>
    <circle cx="13.1878" cy="26.5855" r="2.23662" fill="white"/>
    <circle cx="41.9944" cy="26.5855" r="2.23662" fill="white"/>
</svg>
