<svg width="50" height="66" viewBox="0 0 50 66" fill="none" xmlns="http://www.w3.org/2000/svg">
    <path d="M11.1917 14.9886L25.3496 19.869H25.9777L37.1397 15.7134L40.1839 14.6504L40.6671 16.245C41.0859 17.5818 40.8798 20.7774 36.7049 22.8649C32.53 24.9523 28.7803 25.7319 27.4273 25.8607C25.7683 26.054 21.4066 26.0057 17.2317 24.2662C13.0568 22.5266 11.4655 20.6099 11.1917 19.869C10.7729 18.9187 10.1866 16.6122 11.1917 14.9886Z" fill="white"/>
    <path d="M13.56 25.0395L11.7238 23.3483C10.7091 23.7348 8.583 25.1458 8.19644 27.6971V59.2504C8.21254 60.7805 9.27882 64.0824 13.415 65.0488H38.3484C40.0879 64.5978 43.596 62.8454 43.712 59.4436V27.7938C43.5831 26.7629 42.6199 24.392 39.798 23.155L38.1551 24.7496V24.9912L39.6047 25.8126C40.1363 26.167 41.238 27.2429 41.3926 28.7118V59.1054C41.2959 60.1201 40.4552 62.2752 37.8652 62.7778H13.8016C12.803 62.4878 10.7671 61.3765 10.6125 59.2504V28.2286C10.7252 27.4716 11.4726 25.774 13.56 25.0395Z" fill="white"/>
    <path d="M8.19644 11.993L25.5918 18.033L49.3655 9.86687C49.5426 9.68969 49.752 9.25803 49.1722 8.94878L26.1233 0.734302C25.9784 0.669875 25.5531 0.579677 25.012 0.734302L12.6419 5.22814L1.81814 9.14209C1.70539 9.43202 1.76015 10.0602 2.88119 10.2535C3.21943 10.3662 3.90558 10.669 3.94424 10.9783H4.76568C5.95759 10.5434 8.66031 9.68328 9.93597 9.72194L19.0202 8.32065L23.6107 7.4992C23.8523 6.98378 24.7124 6.08824 26.22 6.62943C27.7276 7.17062 27.6213 8.53004 27.3797 9.14209C27.1864 9.49644 26.4087 10.5816 25.2052 10.1568C24.3838 9.8669 23.8039 9.46423 23.9006 9.14209L14.3331 10.6883C12.8191 10.93 9.54941 11.4712 8.583 11.7031C7.61659 11.935 7.92262 11.993 8.19644 11.993Z" fill="white"/>
    <path d="M3.94424 11.2199H4.76568L5.53881 10.93L4.28248 12.7178V19.9176C4.5563 20.3202 5.09426 21.1739 5.05561 21.3672C5.00729 21.6088 5.20057 22.6235 3.94424 22.7685C2.93917 22.8844 2.36577 22.3658 2.2047 22.092C2.07585 21.6571 2.03075 20.6617 2.88119 20.1592V13.0077C3.12279 12.4923 3.67364 11.4132 3.94424 11.2199Z" fill="white"/>
    <path d="M5.15225 34.3654C5.5227 34.3654 6.3216 34.2494 6.55354 33.7855C6.78548 33.3216 6.16698 31.2084 5.82873 30.2098C5.73209 29.4528 5.52915 27.8518 5.49049 27.5039C5.44217 27.069 5.20057 24.3147 3.70263 24.3147C2.50429 24.3147 1.78592 25.571 1.57653 26.1992C1.44768 27.6488 1.14165 30.6737 0.948369 31.1762C0.706767 31.8044 0.368524 33.0607 0.465164 33.5922C0.542477 34.0175 1.10944 34.2848 1.38325 34.3654C1.59264 34.3493 2.01142 34.1721 2.01142 33.5922C2.01142 33.0124 2.14027 32.2554 2.2047 31.9493C2.30134 31.7561 2.52362 31.4855 2.63958 31.9493C2.75555 32.4132 2.6879 33.7533 2.63958 34.3654C2.63958 34.5425 2.74589 34.8872 3.17111 34.8486C3.70263 34.8003 4.0892 34.9452 4.18584 34.3654C4.26315 33.9015 4.21805 32.7869 4.18584 32.2876C4.21805 31.901 4.35979 31.3598 4.66904 32.2876C4.71736 32.8997 4.88165 34.1721 5.15225 34.3654Z" fill="white"/>
    <path d="M13.56 34.8486L15.7344 36.878L22.0644 33.5922L20.9047 32.2876L30.7621 29.2434L32.2117 30.2098L35.0626 26.924L28.3944 27.5039L29.9406 28.7118L19.6001 31.7077L21.1946 33.5922L15.7344 36.0566L13.8499 34.3654L13.56 34.8486Z" fill="white"/>
    <rect x="14.1885" y="39.8262" width="3.86564" height="6.28166" rx="1.93282" fill="white"/>
    <rect x="13.126" y="49.3931" width="12.7566" height="1.83618" rx="0.918089" fill="white"/>
    <rect x="13.126" y="53.4521" width="12.7566" height="1.83618" rx="0.918089" fill="white"/>
    <rect x="13.126" y="57.5107" width="12.7566" height="1.83618" rx="0.918089" fill="white"/>
    <rect x="26.1719" y="49.3931" width="12.7566" height="1.83618" rx="0.918089" fill="white"/>
    <rect x="26.1719" y="53.4521" width="12.7566" height="1.83618" rx="0.918089" fill="white"/>
    <rect x="26.1719" y="57.5107" width="12.7566" height="1.83618" rx="0.918089" fill="white"/>
    <rect x="20.6641" y="36.1538" width="3.86564" height="9.95401" rx="1.93282" fill="white"/>
    <rect x="27.1377" y="32.9634" width="3.86564" height="13.1432" rx="1.93282" fill="white"/>
    <rect x="34.3867" y="29.7749" width="3.86564" height="16.3323" rx="1.93282" fill="white"/>
</svg>
