<svg width="30" height="40" viewBox="0 0 30 40" fill="none" xmlns="http://www.w3.org/2000/svg">
    <path d="M6.56365 8.76085L15.2133 11.7425H15.5971L22.4164 9.20366L24.2762 8.5542L24.5715 9.52839C24.8273 10.3451 24.7014 12.2975 22.1507 13.5728C19.6001 14.8481 17.3093 15.3243 16.4827 15.4031C15.4692 15.5212 12.8044 15.4916 10.2538 14.4289C7.70316 13.3661 6.73094 12.1951 6.56365 11.7425C6.3078 11.1619 5.94961 9.75275 6.56365 8.76085Z" fill="white"/>
    <path d="M8.01053 14.9012L6.88873 13.868C6.26879 14.1042 4.96987 14.9662 4.7337 16.5249V35.8021C4.74354 36.7369 5.39497 38.7542 7.92197 39.3446H23.1548C24.2176 39.0691 26.3608 37.9984 26.4316 35.9202V16.5839C26.3529 15.9541 25.7645 14.5056 24.0404 13.7499L23.0367 14.7241V14.8717L23.9223 15.3736C24.2471 15.59 24.9202 16.2474 25.0146 17.1448V35.7135C24.9556 36.3335 24.4419 37.6501 22.8596 37.9571H8.15813C7.54803 37.78 6.30421 37.101 6.20975 35.8021V16.8496C6.27863 16.3871 6.73522 15.3499 8.01053 14.9012Z" fill="white"/>
    <path d="M4.7337 6.93055L15.3613 10.6207L29.8856 5.63163C29.9938 5.52339 30.1218 5.25966 29.7675 5.07073L15.686 0.0521602C15.5974 0.0127989 15.3376 -0.042307 15.007 0.0521602L7.44963 2.79763L0.836927 5.18883C0.768044 5.36596 0.801501 5.74973 1.48639 5.86782C1.69304 5.9367 2.11223 6.1217 2.13585 6.31063H2.63771C3.36589 6.04494 5.0171 5.51947 5.79645 5.54309L11.3464 4.68698L14.1509 4.18512C14.2985 3.87023 14.824 3.32311 15.745 3.65374C16.6661 3.98438 16.6011 4.8149 16.4535 5.18883C16.3354 5.40532 15.8603 6.06828 15.1251 5.80877C14.6232 5.63165 14.269 5.38564 14.328 5.18883L8.48286 6.13351C7.55787 6.28112 5.56029 6.61176 4.96987 6.75345C4.37945 6.89513 4.56641 6.93055 4.7337 6.93055Z" fill="white"/>
    <path d="M2.13585 6.45824H2.63771L3.11004 6.28111L2.3425 7.37339V11.772C2.50978 12.018 2.83845 12.5396 2.81483 12.6576C2.78531 12.8053 2.9034 13.4252 2.13585 13.5138C1.52181 13.5846 1.1715 13.2677 1.07309 13.1005C0.994372 12.8348 0.966819 12.2266 1.48639 11.9196V7.55051C1.63399 7.23562 1.97053 6.57632 2.13585 6.45824Z" fill="white"/>
    <path d="M2.87387 20.5988C3.1002 20.5988 3.58828 20.5279 3.72998 20.2445C3.87168 19.9611 3.49382 18.6701 3.28717 18.06C3.22813 17.5975 3.10414 16.6194 3.08052 16.4068C3.051 16.1411 2.9034 14.4584 1.98825 14.4584C1.25612 14.4584 0.817246 15.226 0.689321 15.6097C0.610599 16.4954 0.423632 18.3434 0.305548 18.6504C0.157943 19.0342 -0.0487035 19.8017 0.0103385 20.1265C0.0575721 20.3862 0.403952 20.5496 0.571237 20.5988C0.699162 20.589 0.95501 20.4807 0.95501 20.1265C0.95501 19.7722 1.03373 19.3097 1.07309 19.1227C1.13214 19.0047 1.26793 18.8393 1.33878 19.1227C1.40963 19.4061 1.3683 20.2249 1.33878 20.5988C1.33878 20.707 1.40373 20.9176 1.66351 20.894C1.98825 20.8645 2.22441 20.953 2.28346 20.5988C2.33069 20.3154 2.30314 19.6344 2.28346 19.3294C2.30314 19.0932 2.38973 18.7626 2.57867 19.3294C2.60819 19.7033 2.70856 20.4807 2.87387 20.5988Z" fill="white"/>
    <path d="M8.01053 20.894L9.33897 22.1339L13.2062 20.1265L12.4977 19.3294L18.52 17.4696L19.4056 18.06L21.1474 16.0526L17.0735 16.4068L18.0181 17.1448L11.7007 18.9751L12.6748 20.1265L9.33897 21.632L8.18765 20.5988L8.01053 20.894Z" fill="white"/>
    <rect x="8.39453" y="23.9351" width="2.36168" height="3.83773" rx="1.18084" fill="white"/>
    <rect x="7.74512" y="29.7798" width="7.79354" height="1.1218" rx="0.560899" fill="white"/>
    <rect x="7.74512" y="32.2598" width="7.79354" height="1.1218" rx="0.560899" fill="white"/>
    <rect x="7.74512" y="34.7393" width="7.79354" height="1.1218" rx="0.560899" fill="white"/>
    <rect x="15.7158" y="29.7798" width="7.79354" height="1.1218" rx="0.560899" fill="white"/>
    <rect x="15.7158" y="32.2598" width="7.79354" height="1.1218" rx="0.560899" fill="white"/>
    <rect x="15.7158" y="34.7393" width="7.79354" height="1.1218" rx="0.560899" fill="white"/>
    <rect x="12.3506" y="21.6914" width="2.36168" height="6.08132" rx="1.18084" fill="white"/>
    <rect x="16.3057" y="19.7422" width="2.36168" height="8.02971" rx="1.18084" fill="white"/>
    <rect x="20.7344" y="17.7944" width="2.36168" height="9.9781" rx="1.18084" fill="white"/>
</svg>
