<svg width="49" height="49" viewBox="0 0 49 49" fill="none" xmlns="http://www.w3.org/2000/svg">
    <rect width="49" height="49" rx="24.5" fill="#A9D4DC"/>
    <rect x="7" y="7" width="35" height="35" rx="17.5" fill="#2A626B"/>
    <path d="M17.75 22.8396L15.1963 23.5573C14.9599 23.6236 14.7517 23.7654 14.6035 23.961C14.4552 24.1566 14.375 24.3953 14.375 24.6407V33.5001C14.375 33.7985 14.4935 34.0846 14.7045 34.2956C14.9155 34.5066 15.2016 34.6251 15.5 34.6251H17.75V22.8396ZM31.25 22.8396L33.8038 23.5573C34.0401 23.6236 34.2483 23.7654 34.3965 23.961C34.5448 24.1566 34.625 24.3953 34.625 24.6407V33.5001C34.625 33.7985 34.5065 34.0846 34.2955 34.2956C34.0845 34.5066 33.7984 34.6251 33.5 34.6251H31.25V22.8396Z" fill="white"/>
    <path fill-rule="evenodd" clip-rule="evenodd" d="M25.1244 14.564C24.9395 14.4407 24.7223 14.3749 24.5 14.3749C24.2778 14.3749 24.0605 14.4407 23.8756 14.564L17.1256 19.064C16.8774 19.2296 16.7051 19.4871 16.6467 19.7797C16.5882 20.0723 16.6484 20.3762 16.814 20.6244C16.9796 20.8727 17.237 21.045 17.5297 21.1034C17.8223 21.1618 18.1262 21.1016 18.3744 20.936L20 19.8527V34.625H29V19.8527L30.6256 20.936C30.8105 21.0593 31.0278 21.1251 31.25 21.125C31.4919 21.1259 31.7276 21.0487 31.9221 20.9049C32.1166 20.7612 32.2595 20.5585 32.3296 20.327C32.3997 20.0956 32.3933 19.8476 32.3113 19.6201C32.2293 19.3926 32.0761 19.1976 31.8744 19.064L25.1244 14.564ZM22.25 24.5C22.25 24.2017 22.3685 23.9155 22.5795 23.7046C22.7905 23.4936 23.0767 23.375 23.375 23.375H25.625C25.9234 23.375 26.2095 23.4936 26.4205 23.7046C26.6315 23.9155 26.75 24.2017 26.75 24.5C26.75 24.7984 26.6315 25.0846 26.4205 25.2955C26.2095 25.5065 25.9234 25.625 25.625 25.625H23.375C23.0767 25.625 22.7905 25.5065 22.5795 25.2955C22.3685 25.0846 22.25 24.7984 22.25 24.5ZM23.375 20C23.0767 20 22.7905 20.1186 22.5795 20.3296C22.3685 20.5405 22.25 20.8267 22.25 21.125C22.25 21.4234 22.3685 21.7096 22.5795 21.9205C22.7905 22.1315 23.0767 22.25 23.375 22.25H25.625C25.9234 22.25 26.2095 22.1315 26.4205 21.9205C26.6315 21.7096 26.75 21.4234 26.75 21.125C26.75 20.8267 26.6315 20.5405 26.4205 20.3296C26.2095 20.1186 25.9234 20 25.625 20H23.375Z" fill="white"/>
</svg>
