<svg width="65" height="63" viewBox="0 0 65 63" fill="none" xmlns="http://www.w3.org/2000/svg">
    <rect width="65" height="63" rx="31.5" fill="#A9D4DC"/>
    <circle cx="32.5" cy="31.5" r="25.5" fill="#2A626B"/>
    <g clip-path="url(#clip0_1_3264)">
        <path d="M31.7863 17.1474L19.0988 22.5849C18.3058 22.9247 17.864 23.7743 18.0396 24.6126C18.2152 25.4509 18.9515 26.0626 19.8124 26.0626V26.5157C19.8124 27.269 20.4185 27.8751 21.1718 27.8751H43.8281C44.5814 27.8751 45.1874 27.269 45.1874 26.5157V26.0626C46.0484 26.0626 46.7904 25.4565 46.9603 24.6126C47.1302 23.7687 46.6884 22.919 45.9011 22.5849L33.2136 17.1474C32.7605 16.9548 32.2394 16.9548 31.7863 17.1474ZM25.2499 29.6876H21.6249V40.8062C21.5909 40.8231 21.557 40.8458 21.523 40.8685L18.8042 42.681C18.1415 43.1228 17.8413 43.9497 18.0736 44.7144C18.3058 45.479 19.0138 46.0001 19.8124 46.0001H45.1874C45.9861 46.0001 46.6884 45.479 46.9206 44.7144C47.1529 43.9497 46.8583 43.1228 46.19 42.681L43.4712 40.8685C43.4372 40.8458 43.4032 40.8288 43.3693 40.8062L43.3749 29.6876H39.7499V40.5626H37.4843V29.6876H33.8593V40.5626H31.1405V29.6876H27.5155V40.5626H25.2499V29.6876ZM32.4999 20.6251C32.9806 20.6251 33.4416 20.8161 33.7816 21.156C34.1215 21.4959 34.3124 21.9569 34.3124 22.4376C34.3124 22.9183 34.1215 23.3793 33.7816 23.7192C33.4416 24.0591 32.9806 24.2501 32.4999 24.2501C32.0192 24.2501 31.5582 24.0591 31.2183 23.7192C30.8784 23.3793 30.6874 22.9183 30.6874 22.4376C30.6874 21.9569 30.8784 21.4959 31.2183 21.156C31.5582 20.8161 32.0192 20.6251 32.4999 20.6251Z" fill="white"/>
    </g>
    <defs>
        <clipPath id="clip0_1_3264">
            <rect width="29" height="29" fill="white" transform="translate(18 17)"/>
        </clipPath>
    </defs>
</svg>
