<svg width="65" height="63" viewBox="0 0 65 63" fill="none" xmlns="http://www.w3.org/2000/svg">
    <rect x="-0.00390625" width="65" height="63" rx="31.5" fill="#EBF8E1"/>
    <circle cx="32.4961" cy="31.5" r="25.5" fill="#05400E"/>
    <path d="M31.5615 28.195C32.0184 28.4287 32.5496 28.5669 33.1234 28.5669C33.6971 28.5669 34.2284 28.4287 34.6852 28.195C34.834 28.1206 35.004 28.2906 34.9084 28.4394C34.5259 29.0237 33.8777 29.4062 33.1234 29.4062C32.369 29.4062 31.7209 29.0237 31.3384 28.4394C31.2427 28.2906 31.4127 28.11 31.5615 28.195ZM32.7302 25.0181L32.1777 26.7925C32.0609 27.1537 32.3371 27.5256 32.7196 27.5256H33.5271C33.9096 27.5256 34.1752 27.1537 34.069 26.7925L33.5271 25.0181C33.4994 24.9343 33.446 24.8614 33.3744 24.8098C33.3029 24.7581 33.2169 24.7303 33.1287 24.7303C33.0404 24.7303 32.9544 24.7581 32.8829 24.8098C32.8114 24.8614 32.758 24.9343 32.7302 25.0181ZM29.1602 24.9862C29.3196 24.3487 29.904 23.8706 30.5946 23.8706C31.3171 23.8706 31.9121 24.3912 32.0502 25.0606C32.0715 25.2094 31.9546 25.3475 31.8059 25.3475H31.723C31.7423 25.2675 31.7523 25.1854 31.7527 25.1031C31.7546 24.9793 31.7317 24.8564 31.6855 24.7415C31.6393 24.6267 31.5707 24.5222 31.4836 24.4341C31.3966 24.3461 31.2929 24.2763 31.1785 24.2288C31.0642 24.1813 30.9415 24.157 30.8177 24.1575C30.6727 24.1575 30.5295 24.1909 30.3994 24.255C30.2692 24.3191 30.1556 24.4122 30.0671 24.5272C29.9786 24.6421 29.9177 24.7759 29.889 24.9181C29.8604 25.0603 29.8648 25.2072 29.9019 25.3475H29.4471C29.4029 25.3469 29.3595 25.3366 29.3198 25.3171C29.2801 25.2976 29.2453 25.2696 29.2178 25.235C29.1904 25.2004 29.171 25.1602 29.161 25.1171C29.151 25.0741 29.1508 25.0294 29.1602 24.9862ZM37.0971 24.9862C36.9377 24.3487 36.3534 23.8706 35.6627 23.8706C34.9402 23.8706 34.3452 24.3912 34.2071 25.0606C34.1859 25.2094 34.3027 25.3475 34.4515 25.3475H34.5344C34.515 25.2675 34.505 25.1854 34.5046 25.1031C34.494 24.5825 34.919 24.1575 35.4396 24.1575C35.5847 24.1575 35.7278 24.1909 35.858 24.255C35.9881 24.3191 36.1018 24.4122 36.1903 24.5272C36.2788 24.6421 36.3397 24.7759 36.3683 24.9181C36.397 25.0603 36.3926 25.2072 36.3555 25.3475H36.8102C37.0015 25.3475 37.1396 25.1669 37.0971 24.9862Z" fill="white"/>
    <path d="M31.3601 25.103C31.3594 25.0142 31.3369 24.927 31.2947 24.8488C31.2525 24.7707 31.1918 24.7041 31.1179 24.6549C31.044 24.6056 30.9592 24.5752 30.8709 24.5663C30.7825 24.5573 30.6933 24.5702 30.6111 24.6037C30.63 24.6195 30.6452 24.6393 30.6557 24.6617C30.6662 24.6841 30.6716 24.7084 30.6717 24.7331C30.6718 24.7578 30.6666 24.7822 30.6563 24.8047C30.646 24.8271 30.6309 24.8471 30.6122 24.8631C30.5934 24.8791 30.5713 24.8909 30.5476 24.8975C30.5238 24.9042 30.4988 24.9056 30.4745 24.9016C30.4501 24.8977 30.4269 24.8884 30.4064 24.8746C30.386 24.8608 30.3688 24.8426 30.3561 24.8215C30.306 24.9014 30.2781 24.9933 30.2753 25.0876C30.2725 25.1819 30.2949 25.2752 30.3401 25.358H31.2964C31.3389 25.273 31.3601 25.188 31.3601 25.103ZM35.2542 24.5941C35.3571 24.5577 35.4687 24.5531 35.5742 24.5809C35.6798 24.6087 35.7746 24.6676 35.8462 24.75C35.9179 24.8324 35.9631 24.9345 35.9759 25.0429C35.9887 25.1514 35.9687 25.2612 35.9183 25.358H34.962C34.9153 25.2702 34.8936 25.1712 34.8994 25.0718C34.9052 24.9725 34.9383 24.8767 34.9949 24.7949C35.0049 24.8191 35.0204 24.8406 35.04 24.8579C35.0597 24.8751 35.0831 24.8876 35.1084 24.8943C35.1336 24.901 35.1601 24.9018 35.1858 24.8966C35.2114 24.8914 35.2355 24.8804 35.2562 24.8644C35.2768 24.8484 35.2936 24.8278 35.305 24.8043C35.3164 24.7808 35.3223 24.7549 35.3221 24.7288C35.3219 24.7026 35.3156 24.6768 35.3039 24.6535C35.2921 24.6301 35.2751 24.6098 35.2542 24.5941ZM36.7576 23.4668C36.6408 23.4668 36.5133 23.4243 36.407 23.3499L36.4028 23.3467C36.0081 23.0902 35.5352 22.9821 35.0683 23.0418C34.92 23.0498 34.7742 23.0012 34.6605 22.9057C34.5469 22.8101 34.4738 22.6749 34.4562 22.5275C34.4387 22.38 34.4778 22.2314 34.5659 22.1119C34.6539 21.9923 34.7841 21.9107 34.9301 21.8837C36.2051 21.7349 37.0764 22.3937 37.1083 22.4255C37.3633 22.6168 37.4058 22.9887 37.2145 23.2437C37.0976 23.3924 36.9276 23.4668 36.7576 23.4668ZM29.5114 23.4668C29.3308 23.4668 29.1608 23.3924 29.0439 23.233C28.9979 23.174 28.964 23.1064 28.9444 23.0342C28.9249 22.9619 28.9199 22.8865 28.9297 22.8123C28.9396 22.7381 28.9642 22.6666 29.0021 22.602C29.0399 22.5374 29.0902 22.4811 29.1501 22.4362C29.182 22.4043 30.0639 21.7455 31.3283 21.8943C31.647 21.9368 31.8701 22.2237 31.8383 22.5424C31.8171 22.6939 31.7374 22.8311 31.6162 22.9244C31.495 23.0178 31.342 23.0599 31.1901 23.0418C30.457 22.9525 29.947 23.2872 29.862 23.3425L29.8514 23.3499C29.7451 23.4349 29.6283 23.4668 29.5114 23.4668Z" fill="white"/>
    <path d="M21.3086 46.4062H44.6687C44.8096 46.4062 44.9447 46.3503 45.0444 46.2507C45.144 46.151 45.2 46.0159 45.2 45.875V42.1562C45.1919 39.8135 44.5145 37.5219 43.2477 35.5512C41.9808 33.5806 40.1773 32.0129 38.0493 31.0329C38.5052 30.4252 38.7835 29.7048 38.8547 28.9483L38.961 27.4513C39.3218 27.3227 39.6441 27.1047 39.8977 26.8176C40.1513 26.5306 40.3279 26.1838 40.4109 25.8099C40.4939 25.4359 40.4807 25.0471 40.3724 24.6796C40.2641 24.3122 40.0644 23.9783 39.7918 23.7091L40.2944 20.9466C40.4012 20.4132 40.3345 19.8596 40.1042 19.3667C40.0936 19.3298 40.079 19.2942 40.0607 19.2604L39.5687 18.3562H41.0828V26.1401C40.8148 26.3784 40.6447 26.7076 40.6054 27.064C40.5661 27.4204 40.6605 27.7788 40.8703 28.0696C40.7777 28.2031 40.706 28.3501 40.6578 28.5053L40.0447 30.7365C40.0039 30.875 39.996 31.0212 40.0215 31.1634C40.0471 31.3055 40.1055 31.4397 40.192 31.5554C40.2786 31.671 40.3909 31.7649 40.5201 31.8295C40.6493 31.8941 40.7917 31.9277 40.9362 31.9276H43.1355C43.279 31.9274 43.4205 31.8941 43.5489 31.8303C43.6774 31.7664 43.7893 31.6737 43.8761 31.5594C43.9628 31.4451 44.0219 31.3124 44.0488 31.1715C44.0757 31.0305 44.0697 30.8853 44.0312 30.7471L43.4118 28.4808C43.3653 28.3332 43.2962 28.1938 43.2067 28.0675C43.4168 27.7764 43.5114 27.4177 43.4722 27.0608C43.4329 26.7039 43.2626 26.3743 42.9942 26.1359V16.9739C42.9955 16.9305 42.9901 16.8872 42.9783 16.8454C42.946 16.5031 42.7872 16.1851 42.533 15.9536C42.2787 15.7221 41.9472 15.5938 41.6034 15.5938H24.6448C24.4635 15.5937 24.2838 15.6295 24.1163 15.6989C23.9487 15.7683 23.7964 15.87 23.6682 15.9983C23.5399 16.1266 23.4381 16.2788 23.3687 16.4464C23.2993 16.614 23.2636 16.7936 23.2636 16.975C23.2636 17.1564 23.2993 17.336 23.3687 17.5036C23.4381 17.6712 23.5399 17.8234 23.6682 17.9517C23.7964 18.08 23.9487 18.1817 24.1163 18.2511C24.2838 18.3205 24.4635 18.3562 24.6448 18.3562H26.6902L26.2747 19.1127C25.9389 19.6619 25.8157 20.315 25.9283 20.9488L26.4362 23.7346C26.0236 24.1557 25.7944 24.7229 25.7987 25.3124C25.7986 25.7672 25.9355 26.2114 26.1915 26.5873C26.4476 26.9631 26.8109 27.2531 27.2342 27.4194L27.3404 28.9568C27.4095 29.6793 27.6698 30.3699 28.0937 30.9596C25.9219 31.9183 24.0747 33.4863 22.7761 35.4736C21.4775 37.4609 20.7832 39.7823 20.7773 42.1562V45.875C20.7773 46.0159 20.8333 46.151 20.9329 46.2507C21.0326 46.3503 21.1677 46.4062 21.3086 46.4062ZM31.4236 32.6044H34.6483C34.4649 32.9088 34.2375 33.1845 33.9736 33.4225L33.283 34.0387C33.113 34.1875 32.8686 34.1875 32.6986 34.0387L32.008 33.4225C31.7439 33.1833 31.5156 32.9074 31.3301 32.6033L31.4236 32.6044ZM28.2148 40.2862C28.2148 39.9888 28.4486 39.755 28.7461 39.755C29.0436 39.755 29.2773 39.9888 29.2773 40.2862V45.3438H28.2148V40.2862ZM32.4648 40.2862C32.4648 39.9888 32.6986 39.755 32.9961 39.755C33.2936 39.755 33.5273 39.9888 33.5273 40.2862V45.3438H32.4648V40.2862ZM36.7148 40.2862C36.7148 39.9888 36.9486 39.755 37.2461 39.755C37.5436 39.755 37.7773 39.9888 37.7773 40.2862V45.3438H36.7148V40.2862ZM38.9535 26.2496L39.0768 24.4954C39.1893 24.6159 39.2757 24.7583 39.3308 24.9138C39.3858 25.0692 39.4083 25.2343 39.3967 25.3988C39.3851 25.5632 39.3398 25.7236 39.2636 25.8698C39.1873 26.016 39.0818 26.1449 38.9535 26.2485M30.0466 20.0892L31.498 20.3314C32.5817 20.4908 33.6761 20.4908 34.7598 20.3208L36.1623 20.0871C36.4871 20.1418 36.8097 20.2092 37.1292 20.2889L37.1324 20.2921C37.1359 20.2935 37.1384 20.3031 37.1398 20.3208V21.2346C37.1398 21.7414 37.3492 22.2291 37.7348 22.568L37.7402 22.5733L37.9612 22.7624C38.0568 22.8453 38.1131 22.9696 38.1099 23.1099L37.7051 28.8612C37.5468 30.4411 36.3153 31.5408 34.8236 31.5408H31.4236C29.9318 31.5408 28.7004 30.4411 28.5421 28.8612L28.1383 23.1216C28.1343 23.0523 28.1458 22.9829 28.1718 22.9186C28.1979 22.8543 28.238 22.7966 28.2892 22.7497L28.4826 22.5861L28.4911 22.5786C28.8778 22.2386 29.0861 21.7392 29.0861 21.2452V20.3208C29.0861 20.3208 29.0861 20.3091 29.0967 20.2974C29.1052 20.2868 29.1137 20.2826 29.1137 20.2826C29.3368 20.2263 29.6513 20.1572 30.0455 20.0892M27.1715 24.5081L27.2937 26.2443L27.2246 26.1837C26.999 25.9665 26.8671 25.6697 26.8572 25.3567C26.8473 25.0437 26.96 24.7392 27.1715 24.5081ZM42.9592 30.8672H41.1083L41.6799 28.7996C41.6956 28.7462 41.7227 28.6968 41.7594 28.655C41.7961 28.6131 41.8415 28.5798 41.8924 28.5573C41.9462 28.5354 41.9951 28.5049 42.039 28.4659C42.0822 28.5049 42.1308 28.5357 42.1846 28.5584C42.2339 28.5791 42.2782 28.61 42.3148 28.649C42.3514 28.688 42.3795 28.7342 42.3971 28.7847L42.9592 30.8672ZM41.8573 26.8871C41.9283 26.8503 41.99 26.798 42.038 26.7341V26.7287C42.0853 26.7946 42.1471 26.8488 42.2186 26.8871C42.2792 26.9195 42.33 26.9678 42.3655 27.0267C42.401 27.0856 42.42 27.153 42.4205 27.2218C42.4226 27.2975 42.4015 27.372 42.3602 27.4354C42.3188 27.4988 42.259 27.5481 42.1888 27.5766C42.1336 27.5986 42.0837 27.629 42.039 27.668C41.9952 27.6293 41.9453 27.598 41.8913 27.5756C41.8216 27.5464 41.7621 27.4972 41.7203 27.4342C41.6785 27.3713 41.6563 27.2973 41.6565 27.2218C41.6569 27.1531 41.6757 27.0858 41.711 27.0269C41.7464 26.968 41.7969 26.9197 41.8573 26.8871Z" fill="white"/>
</svg>
