<svg width="49" height="49" viewBox="0 0 49 49" fill="none" xmlns="http://www.w3.org/2000/svg">
    <rect width="49" height="49" rx="24.5" fill="#A9D4DC"/>
    <circle cx="24.5" cy="24.5" r="17.5" fill="#2A626B"/>
    <g clip-path="url(#clip0_1_3249)">
        <path d="M24.5 13.7268L11 20.0268L14.6 21.6468V24.7068C13.52 25.0668 12.8 26.1468 12.8 27.2268C12.8 28.3068 13.52 29.3868 14.6 29.7468V29.9268L12.98 33.7068C12.44 35.3268 12.8 37.1268 15.5 37.1268C18.2 37.1268 18.56 35.3268 18.02 33.7068L16.4 29.9268C17.48 29.3868 18.2 28.4868 18.2 27.2268C18.2 25.9668 17.48 25.0668 16.4 24.7068V22.5468L24.5 26.3268L38 20.0268L24.5 13.7268ZM32.42 25.4268L24.32 29.0268L20 27.0468V27.2268C20 28.4868 19.46 29.5668 18.56 30.4668L19.64 32.9868V33.1668C19.82 33.8868 20 34.6068 19.82 35.3268C21.08 35.8668 22.52 36.2268 24.32 36.2268C30.26 36.2268 32.42 32.6268 32.42 30.8268V25.4268Z" fill="white"/>
    </g>
    <defs>
        <clipPath id="clip0_1_3249">
            <rect width="27" height="27" fill="white" transform="translate(11 11.9268)"/>
        </clipPath>
    </defs>
</svg>
