<svg width="29" height="29" viewBox="0 0 29 29" fill="none" xmlns="http://www.w3.org/2000/svg">
    <rect width="29" height="29" rx="14.5" fill="white"/>
    <path fill-rule="evenodd" clip-rule="evenodd" d="M15.4963 6.13176C15.1889 5.95608 14.8115 5.95608 14.504 6.13176L7.50403 10.1318C7.02451 10.4058 6.85792 11.0166 7.13193 11.4961C7.31631 11.8188 7.65322 11.9998 8 12.0002V19C7.44772 19 7 19.4477 7 20C7 20.5523 7.44772 21 8 21H22C22.5523 21 23 20.5523 23 20C23 19.4477 22.5523 19 22 19V12.0002C22.3469 11.9999 22.684 11.8189 22.8684 11.4961C23.1424 11.0166 22.9758 10.4058 22.4963 10.1318L15.4963 6.13176ZM11 13C10.4477 13 10 13.4477 10 14V17C10 17.5523 10.4477 18 11 18C11.5523 18 12 17.5523 12 17V14C12 13.4477 11.5523 13 11 13ZM14 14C14 13.4477 14.4477 13 15 13C15.5523 13 16 13.4477 16 14V17C16 17.5523 15.5523 18 15 18C14.4477 18 14 17.5523 14 17V14ZM19 13C18.4477 13 18 13.4477 18 14V17C18 17.5523 18.4477 18 19 18C19.5523 18 20 17.5523 20 17V14C20 13.4477 19.5523 13 19 13Z" fill="#C476C8"/>
</svg>
