<svg width="33" height="33" viewBox="0 0 33 33" fill="none" xmlns="http://www.w3.org/2000/svg">
    <g clip-path="url(#clip0_996_393)">
        <path d="M32.4087 16.5C32.4087 20.7435 30.723 24.8131 27.7224 27.8137C24.7218 30.8143 20.6522 32.5 16.4087 32.5C12.1652 32.5 8.09556 30.8143 5.09498 27.8137C2.0944 24.8131 0.408691 20.7435 0.408691 16.5C0.408691 12.2565 2.0944 8.18687 5.09498 5.18629C8.09556 2.18571 12.1652 0.5 16.4087 0.5C20.6522 0.5 24.7218 2.18571 27.7224 5.18629C30.723 8.18687 32.4087 12.2565 32.4087 16.5ZM16.9827 12.312C15.4254 12.96 12.3147 14.3 7.65069 16.332C6.89469 16.632 6.49802 16.9267 6.46069 17.216C6.40069 17.702 7.01069 17.894 7.84069 18.156L8.19069 18.266C9.00669 18.532 10.1067 18.842 10.6767 18.854C11.1967 18.8673 11.7754 18.654 12.4127 18.214C16.7714 15.2727 19.0207 13.786 19.1607 13.754C19.2607 13.73 19.4007 13.702 19.4927 13.786C19.5847 13.87 19.5767 14.026 19.5667 14.068C19.5067 14.326 17.1127 16.55 15.8747 17.702C15.4887 18.062 15.2147 18.316 15.1587 18.374C15.0354 18.5001 14.9101 18.6241 14.7827 18.746C14.0227 19.478 13.4547 20.026 14.8127 20.922C15.4667 21.354 15.9907 21.708 16.5127 22.064C17.0807 22.452 17.6487 22.838 18.3847 23.322C18.5714 23.4447 18.7514 23.5693 18.9247 23.696C19.5867 24.168 20.1847 24.592 20.9187 24.524C21.3467 24.484 21.7887 24.084 22.0127 22.884C22.5427 20.05 23.5847 13.912 23.8247 11.382C23.8398 11.1717 23.8311 10.9604 23.7987 10.752C23.7793 10.584 23.698 10.4293 23.5707 10.318C23.3885 10.1929 23.1717 10.1278 22.9507 10.132C22.3507 10.142 21.4247 10.464 16.9827 12.312Z" fill="#5CA5F9"/>
    </g>
    <defs>
        <clipPath id="clip0_996_393">
            <rect width="32" height="32" fill="white" transform="translate(0.408691 0.5)"/>
        </clipPath>
    </defs>
</svg>
