<svg width="24" height="25" viewBox="0 0 24 25" fill="none" xmlns="http://www.w3.org/2000/svg">
    <path d="M6.74456 7.38247L16.8636 17.501M20.7001 13.6645C20.9665 13.3985 21.1433 13.056 21.2059 12.6848C21.2686 12.3136 21.2139 11.9321 21.0496 11.5935C20.3716 10.196 19.2611 8.37347 17.5816 6.66447C16.1536 5.20412 14.4706 4.01726 12.6156 3.16247C11.9326 2.84647 11.1256 3.00247 10.5931 3.53447L4.58606 9.54147C4.41795 9.70955 4.28459 9.9091 4.19361 10.1287C4.10262 10.3483 4.05579 10.5837 4.05579 10.8215C4.05579 11.0592 4.10262 11.2946 4.19361 11.5142C4.28459 11.7338 4.41795 11.9334 4.58606 12.1015L7.10956 14.625L3.33706 18.397C2.65706 19.077 2.55706 20.196 3.20056 20.9105C3.36166 21.0902 3.5577 21.2351 3.77672 21.3365C3.99573 21.4378 4.23311 21.4935 4.47436 21.5C4.7156 21.5065 4.95563 21.4637 5.17979 21.3743C5.40395 21.2849 5.60752 21.1507 5.77806 20.98L9.62107 17.1365L12.1451 19.66C12.4845 19.9993 12.9448 20.19 13.4248 20.19C13.9048 20.19 14.3651 19.9993 14.7046 19.66L20.7001 13.6645Z" stroke="white" stroke-width="2" stroke-linecap="round" stroke-linejoin="round"/>
</svg>
