<svg width="41" height="39" viewBox="0 0 41 39" fill="none" xmlns="http://www.w3.org/2000/svg">
    <path d="M33.8934 26.9063H32.2534V17.9559C32.2534 17.8103 32.1958 17.6706 32.0933 17.5676C31.9908 17.4647 31.8517 17.4068 31.7067 17.4068C31.5617 17.4068 31.4227 17.4647 31.3202 17.5676C31.2177 17.6706 31.1601 17.8103 31.1601 17.9559V26.9063H17.4934C17.0586 26.9067 16.6417 27.0805 16.3343 27.3893C16.0268 27.6981 15.8539 28.1168 15.8534 28.5536V31.8482C15.8534 32.5764 15.5654 33.2747 15.0528 33.7896C14.5402 34.3045 13.845 34.5938 13.1201 34.5938C12.3951 34.5938 11.6999 34.3045 11.1873 33.7896C10.6747 33.2747 10.3867 32.5764 10.3867 31.8482V6.5893C10.3868 6.07744 10.2847 5.57077 10.0866 5.09921C9.8884 4.62764 9.59815 4.20075 9.23298 3.84376H28.4267C28.9907 3.84395 29.5408 4.01945 30.0015 4.34617C30.4622 4.6729 30.811 5.13483 30.9999 5.66857C31.0375 5.7757 31.1073 5.86847 31.1996 5.93407C31.2919 5.99967 31.4022 6.03488 31.5153 6.03483C31.5773 6.03472 31.6388 6.02421 31.6974 6.00373C31.8341 5.95517 31.946 5.85406 32.0085 5.72263C32.071 5.59121 32.079 5.44022 32.0308 5.30287C31.7663 4.55505 31.278 3.90776 30.6327 3.44988C29.9874 2.992 29.2168 2.74596 28.4267 2.74554H6.56007C5.54553 2.74673 4.57289 3.15208 3.85551 3.87267C3.13813 4.59325 2.73458 5.57023 2.7334 6.5893V10.9822C2.73387 11.4189 2.90681 11.8376 3.21427 12.1465C3.52172 12.4553 3.93859 12.629 4.3734 12.6295H9.2934V31.8482C9.29458 32.8673 9.69813 33.8443 10.4155 34.5649C11.1329 35.2854 12.1055 35.6908 13.1201 35.692H31.7067C32.7213 35.6908 33.6939 35.2854 34.4113 34.5649C35.1287 33.8443 35.5322 32.8673 35.5334 31.8482V28.5536C35.5329 28.1168 35.36 27.6981 35.0525 27.3893C34.7451 27.0805 34.3282 26.9067 33.8934 26.9063ZM3.82673 10.9822V6.5893C3.82673 5.86113 4.11471 5.1628 4.62731 4.64791C5.13991 4.13302 5.83514 3.84376 6.56007 3.84376C7.28499 3.84376 7.98022 4.13302 8.49282 4.64791C9.00542 5.1628 9.2934 5.86113 9.2934 6.5893V11.5313H4.3734C4.22846 11.5311 4.0895 11.4732 3.98701 11.3703C3.88452 11.2673 3.82688 11.1277 3.82673 10.9822ZM34.4401 31.8482C34.4392 32.5761 34.151 33.274 33.6385 33.7887C33.1261 34.3034 32.4314 34.5929 31.7067 34.5938H15.7957C16.1603 34.2365 16.45 33.8095 16.6477 33.3379C16.8453 32.8664 16.947 32.3599 16.9467 31.8482V28.5536C16.9469 28.408 17.0045 28.2684 17.107 28.1655C17.2095 28.0625 17.3485 28.0046 17.4934 28.0045H33.8934C34.0383 28.0046 34.1773 28.0625 34.2798 28.1655C34.3823 28.2684 34.4399 28.408 34.4401 28.5536V31.8482Z" fill="#413F3F"/>
    <path d="M36.015 5.49109C35.4992 5.49153 34.9992 5.65748 34.598 5.96134C30.8687 8.79148 28.3104 10.733 24.9274 13.3003C23.7523 14.1987 22.8887 15.4044 22.4465 16.7642L19.3812 17.2432C19.2641 17.2615 19.156 17.3136 19.0721 17.3924C18.9882 17.4711 18.9327 17.5724 18.9132 17.6822L17.7743 24.0884C17.7608 24.1649 17.7651 24.2432 17.7871 24.3179C17.8091 24.3926 17.8481 24.462 17.9016 24.5211C17.955 24.5802 18.0216 24.6278 18.0966 24.6604C18.1716 24.6929 18.2533 24.7098 18.336 24.7098C18.3674 24.7097 18.3987 24.7073 18.4297 24.7025L25.263 23.6348C25.3801 23.6165 25.4882 23.5644 25.5721 23.4857C25.656 23.407 25.7115 23.3056 25.731 23.1959L26.2419 20.3222C27.6925 19.9079 28.9787 19.0981 29.9365 17.996C34.8286 12.3306 34.7064 12.4722 37.7647 8.93038C38.0324 8.62056 38.201 8.24601 38.251 7.85008C38.301 7.45415 38.2304 7.05304 38.0473 6.69319C37.8642 6.33333 37.5762 6.02944 37.2165 5.8167C36.8568 5.60396 36.4402 5.49107 36.015 5.49109ZM30.996 15.0722L28.0466 12.3071L32.5119 8.91842L34.6349 10.8581L30.996 15.0722ZM19.9952 23.3754L22.1553 21.3503C22.2604 21.2499 22.3191 21.1146 22.3184 20.9739C22.3177 20.8331 22.2578 20.6983 22.1516 20.5988C22.0455 20.4993 21.9017 20.4431 21.7516 20.4425C21.6015 20.4419 21.4572 20.4968 21.3501 20.5954L19.1897 22.6208L19.9698 18.2337L22.6961 17.8078L23.9126 18.948L25.129 20.0884L24.6744 22.6443L19.9952 23.3754ZM29.0512 17.3245C28.2365 18.2637 27.1417 18.9542 25.9067 19.3077L23.5288 17.0784C23.906 15.9205 24.6424 14.8942 25.6443 14.1302L27.1566 12.9825L30.2756 15.9066L29.0512 17.3245ZM36.8797 8.25837L35.3542 10.025L33.403 8.24221L35.3148 6.79132C35.5285 6.62911 35.7987 6.54683 36.0732 6.56032C36.3478 6.57381 36.6073 6.68214 36.8017 6.8644C36.9961 7.04666 37.1117 7.28995 37.1261 7.54735C37.1405 7.80475 37.0527 8.05805 36.8797 8.25837Z" fill="#413F3F"/>
    <path d="M15.8141 23.337H12.8855C12.7302 23.337 12.5812 23.4094 12.4714 23.5381C12.3615 23.6668 12.2998 23.8414 12.2998 24.0234C12.2998 24.2055 12.3615 24.38 12.4714 24.5088C12.5812 24.6375 12.7302 24.7098 12.8855 24.7098H15.8141C15.9694 24.7098 16.1184 24.6375 16.2283 24.5088C16.3381 24.38 16.3998 24.2055 16.3998 24.0234C16.3998 23.8414 16.3381 23.6668 16.2283 23.5381C16.1184 23.4094 15.9694 23.337 15.8141 23.337Z" fill="#413F3F"/>
    <path d="M15.8141 20.5916H12.8855C12.7302 20.5916 12.5812 20.6639 12.4714 20.7926C12.3615 20.9213 12.2998 21.0959 12.2998 21.2779C12.2998 21.46 12.3615 21.6346 12.4714 21.7633C12.5812 21.892 12.7302 21.9643 12.8855 21.9643H15.8141C15.9694 21.9643 16.1184 21.892 16.2283 21.7633C16.3381 21.6346 16.3998 21.46 16.3998 21.2779C16.3998 21.0959 16.3381 20.9213 16.2283 20.7926C16.1184 20.6639 15.9694 20.5916 15.8141 20.5916Z" fill="#413F3F"/>
    <path d="M21.8665 14.414C21.8665 14.3239 21.851 14.2346 21.821 14.1513C21.791 14.0681 21.7469 13.9924 21.6914 13.9286C21.6359 13.8649 21.5699 13.8143 21.4974 13.7799C21.4248 13.7454 21.3471 13.7276 21.2686 13.7277H12.8977C12.7391 13.7277 12.5871 13.8 12.4749 13.9287C12.3628 14.0574 12.2998 14.232 12.2998 14.414C12.2998 14.5961 12.3628 14.7707 12.4749 14.8994C12.5871 15.0281 12.7391 15.1004 12.8977 15.1004H21.2686C21.3471 15.1005 21.4248 15.0827 21.4974 15.0482C21.5699 15.0137 21.6359 14.9632 21.6914 14.8994C21.7469 14.8357 21.791 14.76 21.821 14.6767C21.851 14.5935 21.8665 14.5042 21.8665 14.414Z" fill="#413F3F"/>
    <path d="M25.9665 10.4331V6.0402C25.9665 5.96808 25.9518 5.89667 25.9232 5.83004C25.8946 5.76341 25.8526 5.70287 25.7997 5.65188C25.7468 5.60088 25.6841 5.56044 25.615 5.53285C25.5459 5.50526 25.4718 5.49107 25.397 5.49109H12.8692C12.7945 5.49107 12.7204 5.50526 12.6513 5.53285C12.5822 5.56044 12.5194 5.60088 12.4665 5.65188C12.4137 5.70287 12.3717 5.76341 12.3431 5.83004C12.3145 5.89667 12.2998 5.96808 12.2998 6.0402V10.4331C12.2998 10.5052 12.3145 10.5766 12.3431 10.6432C12.3717 10.7098 12.4137 10.7704 12.4665 10.8214C12.5194 10.8724 12.5822 10.9128 12.6513 10.9404C12.7204 10.968 12.7945 10.9822 12.8692 10.9822H25.397C25.4718 10.9822 25.5459 10.968 25.615 10.9404C25.6841 10.9128 25.7468 10.8724 25.7997 10.8214C25.8526 10.7704 25.8946 10.7098 25.9232 10.6432C25.9518 10.5766 25.9665 10.5052 25.9665 10.4331ZM24.8276 9.88395H13.4387V6.5893H24.8276V9.88395Z" fill="#413F3F"/>
</svg>
