<svg width="45" height="41" viewBox="0 0 45 41" fill="none" xmlns="http://www.w3.org/2000/svg">
    <path d="M44.7873 26.7193L43.559 25.522C43.8844 25.161 44.1091 24.7245 44.2115 24.2545C44.3139 23.7844 44.2906 23.2966 44.1438 22.8379C43.9969 22.3792 43.7315 21.965 43.3731 21.6351C43.0146 21.3051 42.5751 21.0706 42.0968 20.9539V15.9022C42.0929 15.7682 42.0517 15.6377 41.9777 15.5247C41.9037 15.4117 41.7996 15.3204 41.6765 15.2605L21.3539 6.06527C21.2581 6.02227 21.1539 6 21.0484 6C20.9429 6 20.8387 6.02227 20.7429 6.06527L0.420317 15.2605C0.294774 15.3173 0.188506 15.4079 0.114036 15.5216C0.0395665 15.6353 0 15.7673 0 15.9022C0 16.0371 0.0395665 16.1692 0.114036 16.2829C0.188506 16.3966 0.294774 16.4871 0.420317 16.5439L9.43549 20.623V29.3414C9.43546 29.476 9.47486 29.6079 9.54907 29.7214C9.62327 29.835 9.72919 29.9255 9.85439 29.9824L20.7415 34.9337C20.8376 34.9774 20.9423 35 21.0484 35C21.1544 35 21.2592 34.9774 21.3553 34.9337L32.2424 29.9824C32.3676 29.9255 32.4735 29.835 32.5477 29.7214C32.6219 29.6079 32.6613 29.476 32.6613 29.3414V20.623L40.6452 17.0106V20.9539C40.1669 21.0706 39.7274 21.3051 39.3689 21.6351C39.0104 21.965 38.745 22.3792 38.5982 22.8379C38.4514 23.2966 38.428 23.7844 38.5304 24.2544C38.6328 24.7245 38.8575 25.1609 39.183 25.5219L37.9546 26.7193C37.8872 26.785 37.8337 26.8629 37.7972 26.9488C37.7607 27.0346 37.7419 27.1265 37.7419 27.2194V34.2927C37.7419 34.3856 37.7607 34.4776 37.7971 34.5634C37.8336 34.6492 37.8871 34.7272 37.9545 34.7929C38.0219 34.8586 38.1019 34.9107 38.19 34.9462C38.278 34.9817 38.3724 35 38.4677 35H44.2742C44.3695 35 44.4639 34.9817 44.552 34.9462C44.64 34.9107 44.7201 34.8586 44.7875 34.7929C44.8549 34.7272 44.9083 34.6492 44.9448 34.5634C44.9813 34.4776 45 34.3856 45 34.2927V27.2194C45 27.1265 44.9812 27.0346 44.9447 26.9488C44.9083 26.8629 44.8548 26.785 44.7873 26.7193ZM21.0484 7.48684L38.0842 15.1949H21.0484C20.8559 15.1949 20.6713 15.2694 20.5352 15.4021C20.399 15.5347 20.3226 15.7146 20.3226 15.9022C20.3226 16.0898 20.399 16.2697 20.5352 16.4024C20.6713 16.535 20.8559 16.6095 21.0484 16.6095H38.0842L21.0484 24.3176L2.44924 15.9022L21.0484 7.48684ZM21.0484 33.5121L10.8871 28.891V26.2081L20.7415 30.6898C20.8376 30.7334 20.9423 30.7561 21.0484 30.7561C21.1544 30.7561 21.2592 30.7334 21.3553 30.6898L31.2097 26.2081V28.891L21.0484 33.5121ZM31.2097 24.6469L21.0484 29.2682L10.8871 24.6469V21.2798L20.7429 25.7392C20.8386 25.7824 20.9429 25.8048 21.0484 25.8048C21.1539 25.8048 21.2581 25.7824 21.3539 25.7392L31.2097 21.2798V24.6469ZM41.371 22.2681C41.6581 22.2681 41.9387 22.3511 42.1774 22.5066C42.4162 22.662 42.6022 22.8829 42.7121 23.1414C42.822 23.3999 42.8507 23.6844 42.7947 23.9588C42.7387 24.2332 42.6004 24.4853 42.3974 24.6831C42.1944 24.8809 41.9357 25.0157 41.6542 25.0703C41.3726 25.1248 41.0807 25.0968 40.8155 24.9898C40.5502 24.8827 40.3235 24.7014 40.164 24.4687C40.0045 24.2361 39.9194 23.9626 39.9194 23.6828C39.9198 23.3077 40.0729 22.9482 40.345 22.683C40.6171 22.4178 40.9861 22.2686 41.371 22.2681ZM43.5484 33.5854H39.1936V27.5123L40.3992 26.3371C41.0249 26.5704 41.717 26.5704 42.3428 26.3371L43.5484 27.5123V33.5854Z" fill="#413F3F"/>
</svg>
