<svg width="40" height="41" viewBox="0 0 40 41" fill="none" xmlns="http://www.w3.org/2000/svg">
    <path d="M39.811 18.7656L38.7191 17.6812C39.0083 17.3542 39.2081 16.9589 39.2991 16.5332C39.3902 16.1075 39.3694 15.6657 39.2389 15.2502C39.1084 14.8347 38.8725 14.4596 38.5538 14.1608C38.2352 13.8619 37.8445 13.6495 37.4194 13.5439V8.96848C37.4159 8.8471 37.3793 8.72893 37.3135 8.62657C37.2477 8.52422 37.1552 8.44151 37.0457 8.38729L18.9812 0.0591189C18.8961 0.0201689 18.8034 0 18.7097 0C18.6159 0 18.5233 0.0201689 18.4381 0.0591189L0.373615 8.38729C0.262022 8.43872 0.167561 8.52075 0.101365 8.62373C0.0351702 8.7267 0 8.84632 0 8.96848C0 9.09065 0.0351702 9.21027 0.101365 9.31324C0.167561 9.41621 0.262022 9.49825 0.373615 9.54968L8.3871 13.2441V21.1404C8.38707 21.2623 8.4221 21.3818 8.48806 21.4846C8.55402 21.5874 8.64817 21.6695 8.75945 21.721L18.4369 26.2054C18.5223 26.2449 18.6154 26.2654 18.7097 26.2654C18.8039 26.2654 18.8971 26.2449 18.9825 26.2054L28.6599 21.721C28.7712 21.6695 28.8653 21.5874 28.9313 21.4846C28.9973 21.3818 29.0323 21.2623 29.0323 21.1404V13.2441L36.129 9.97235V13.5439C35.7039 13.6495 35.3132 13.8619 34.9946 14.1608C34.6759 14.4596 34.44 14.8347 34.3095 15.2502C34.179 15.6656 34.1582 16.1074 34.2493 16.5331C34.3403 16.9588 34.54 17.3542 34.8293 17.6811L33.7374 18.7656C33.6775 18.8251 33.6299 18.8957 33.5975 18.9734C33.5651 19.0511 33.5484 19.1344 33.5484 19.2185V25.6248C33.5484 25.709 33.565 25.7923 33.5975 25.87C33.6299 25.9477 33.6774 26.0184 33.7373 26.0779C33.7972 26.1374 33.8683 26.1845 33.9466 26.2167C34.0249 26.2489 34.1088 26.2655 34.1936 26.2654H39.3548C39.4396 26.2655 39.5235 26.2489 39.6018 26.2167C39.68 26.1845 39.7512 26.1374 39.8111 26.0779C39.871 26.0184 39.9185 25.9477 39.9509 25.87C39.9834 25.7923 40 25.709 40 25.6248V19.2185C40 19.1344 39.9833 19.0511 39.9509 18.9734C39.9184 18.8957 39.8709 18.8251 39.811 18.7656ZM18.7097 1.34663L33.8527 8.32786H18.7097C18.5386 8.32786 18.3745 8.39535 18.2535 8.51549C18.1325 8.63563 18.0645 8.79858 18.0645 8.96848C18.0645 9.13839 18.1325 9.30134 18.2535 9.42148C18.3745 9.54162 18.5386 9.60911 18.7097 9.60911H33.8527L18.7097 16.5903L2.17711 8.96848L18.7097 1.34663ZM18.7097 24.9179L9.67742 20.7325V18.3026L18.4369 22.3616C18.5223 22.4012 18.6154 22.4217 18.7097 22.4217C18.8039 22.4217 18.8971 22.4012 18.9825 22.3616L27.7419 18.3026V20.7325L18.7097 24.9179ZM27.7419 16.8886L18.7097 21.0741L9.67742 16.8886V13.839L18.4381 17.8778C18.5232 17.917 18.6159 17.9373 18.7097 17.9373C18.8035 17.9373 18.8961 17.917 18.9812 17.8778L27.7419 13.839V16.8886ZM36.7742 14.7341C37.0294 14.7341 37.2789 14.8093 37.4911 14.9501C37.7033 15.0909 37.8686 15.291 37.9663 15.5251C38.064 15.7592 38.0895 16.0168 38.0397 16.2654C37.9899 16.5139 37.867 16.7422 37.6866 16.9214C37.5061 17.1006 37.2762 17.2226 37.0259 17.272C36.7756 17.3215 36.5162 17.2961 36.2804 17.1991C36.0446 17.1021 35.8431 16.9379 35.7013 16.7272C35.5595 16.5165 35.4839 16.2688 35.4839 16.0154C35.4843 15.6757 35.6203 15.35 35.8622 15.1098C36.1041 14.8696 36.4321 14.7345 36.7742 14.7341ZM38.7097 24.9842H34.8387V19.4838L35.9104 18.4194C36.4666 18.6307 37.0818 18.6307 37.638 18.4194L38.7097 19.4838V24.9842Z" fill="#413F3F"/>
    <path d="M31.6133 26.9063C31.5826 26.9062 31.552 26.9082 31.5216 26.9125L31.2054 26.9576L31.2033 26.9583L31.2013 26.9582L22.4437 28.2645C22.3382 28.0499 22.1743 27.8689 21.9705 27.7421C21.7667 27.6153 21.5312 27.5476 21.2907 27.5469H16.1294C15.8889 27.5476 15.6535 27.6153 15.4497 27.7421C15.2459 27.8689 15.082 28.0499 14.9765 28.2645L6.21481 26.9576L5.89853 26.9125C5.86817 26.9082 5.83753 26.9062 5.80686 26.9063C3.96777 26.9063 2.58105 29.6602 2.58105 33.3125C2.58105 36.9649 3.96777 39.7188 5.80686 39.7188C5.83753 39.7189 5.86817 39.7168 5.89853 39.7126L14.8391 38.3809V40.3594C14.8391 40.4641 14.865 40.5673 14.9144 40.6597C14.9638 40.7522 15.0353 40.8313 15.1226 40.89C15.21 40.9487 15.3104 40.9852 15.4153 40.9965C15.5201 41.0077 15.6261 40.9933 15.724 40.9544L18.7101 39.7682L21.6962 40.9544C21.7941 40.9933 21.9001 41.0077 22.0049 40.9965C22.1098 40.9852 22.2102 40.9487 22.2975 40.89C22.3848 40.8313 22.4563 40.7522 22.5058 40.6597C22.5552 40.5673 22.581 40.4641 22.5811 40.3594V38.3811L31.2013 39.6669L31.2042 39.6671L31.2054 39.6676C31.2805 39.6782 31.539 39.7188 31.6133 39.7188C33.4524 39.7188 34.8391 36.9649 34.8391 33.3125C34.8391 29.6602 33.4524 26.9063 31.6133 26.9063ZM6.03147 38.3988L5.77063 38.4363C4.98308 38.3769 3.87138 36.3937 3.87138 33.3125C3.87138 30.2314 4.98308 28.2482 5.77063 28.1888L14.8391 29.5402V37.085L6.03147 38.3988ZM21.2907 39.4135L18.9498 38.4832C18.7959 38.4223 18.6243 38.4223 18.4704 38.4832L16.1294 39.4135V28.8281H21.2907V39.4135ZM22.5811 37.085V29.54L29.4236 28.5191C28.6904 30.0093 28.3347 31.6548 28.3875 33.3125C28.3347 34.9703 28.6904 36.6158 29.4236 38.106L22.5811 37.085ZM30.9682 38.079C30.3484 37.4164 29.7986 35.8844 29.6965 33.9532H30.323C30.494 33.9533 30.658 34.0209 30.779 34.141C30.9 34.2611 30.968 34.4239 30.9682 34.5938V38.079ZM32.2585 38.064V34.5938C32.2579 34.0842 32.0538 33.5957 31.691 33.2354C31.3281 32.8751 30.8361 32.6725 30.323 32.6719H29.6965C29.8245 30.25 30.6574 28.457 31.4474 28.2178L31.6495 28.1888C32.4371 28.2482 33.5488 30.2314 33.5488 33.3125C33.5488 35.6474 32.9104 37.3495 32.2585 38.064Z" fill="#413F3F"/>
</svg>
