<svg width="41" height="41" viewBox="0 0 41 41" fill="none" xmlns="http://www.w3.org/2000/svg">
    <g clip-path="url(#clip0_1681_1104)">
        <path d="M31.2137 2.77363L30.5003 0.580129C30.4411 0.410078 30.3305 0.262666 30.1837 0.15835C30.037 0.0540332 29.8614 -0.00201416 29.6813 -0.00201416C29.5013 -0.00201416 29.3257 0.0540332 29.1789 0.15835C29.0322 0.262666 28.9215 0.410078 28.8623 0.580129L28.1489 2.77363C27.932 3.43682 27.5642 4.04064 27.0744 4.53758C26.5845 5.03452 25.9861 5.41102 25.3261 5.63748L23.1305 6.35088C22.9612 6.41049 22.8145 6.52119 22.7108 6.6677C22.607 6.81421 22.5513 6.9893 22.5513 7.16883C22.5513 7.34835 22.607 7.52345 22.7108 7.66996C22.8145 7.81647 22.9612 7.92717 23.1305 7.98678L25.3261 8.70018C25.9958 8.9219 26.6041 9.29761 27.1022 9.79712C27.6003 10.2966 27.9742 10.906 28.194 11.5763L28.9074 13.7698C28.967 13.9392 29.0777 14.0858 29.2243 14.1896C29.3708 14.2933 29.5459 14.349 29.7254 14.349C29.9049 14.349 30.08 14.2933 30.2265 14.1896C30.373 14.0858 30.4837 13.9392 30.5433 13.7698L31.2588 11.5763C31.48 10.9085 31.8544 10.3017 32.352 9.80447C32.8497 9.3072 33.4567 8.93324 34.1247 8.71248L36.3223 7.99908C36.4916 7.93947 36.6383 7.82877 36.742 7.68226C36.8458 7.53575 36.9015 7.36065 36.9015 7.18113C36.9015 7.00161 36.8458 6.82651 36.742 6.68C36.6383 6.53349 36.4916 6.42279 36.3223 6.36318L36.2772 6.35088L34.0796 5.63748C33.4116 5.41672 32.8046 5.04275 32.3069 4.54549C31.8093 4.04822 31.4349 3.44143 31.2137 2.77363ZM38.9852 16.3282L40.5555 16.8366L40.5863 16.8448C40.7065 16.8882 40.8103 16.9676 40.8837 17.0721C40.9571 17.1767 40.9965 17.3013 40.9965 17.4291C40.9965 17.5568 40.9571 17.6815 40.8837 17.786C40.8103 17.8906 40.7065 17.97 40.5863 18.0133L39.018 18.5217C38.5408 18.6805 38.1071 18.9482 37.7512 19.3037C37.3954 19.6591 37.1273 20.0926 36.968 20.5697L36.4596 22.1359C36.4172 22.257 36.3382 22.3619 36.2335 22.4361C36.1288 22.5103 36.0037 22.5502 35.8754 22.5502C35.7471 22.5502 35.6219 22.5103 35.5173 22.4361C35.4126 22.3619 35.3336 22.257 35.2911 22.1359L34.7807 20.5697C34.6225 20.0917 34.355 19.6571 33.9995 19.3006C33.644 18.944 33.2103 18.6752 32.7327 18.5156L31.1645 18.0051C31.0443 17.9618 30.9405 17.8824 30.867 17.7778C30.7936 17.6733 30.7542 17.5486 30.7542 17.4209C30.7542 17.2931 30.7936 17.1685 30.867 17.0639C30.9405 16.9594 31.0443 16.88 31.1645 16.8366L32.7327 16.3282C33.2039 16.1652 33.6311 15.8955 33.981 15.5403C34.3309 15.1851 34.594 14.7539 34.7499 14.2803L35.2604 12.7141C35.3028 12.593 35.3818 12.4881 35.4865 12.4139C35.5912 12.3396 35.7163 12.2998 35.8446 12.2998C35.9729 12.2998 36.0981 12.3396 36.2028 12.4139C36.3074 12.4881 36.3864 12.593 36.4289 12.7141L36.9393 14.2803C37.0984 14.7571 37.3662 15.1905 37.7217 15.5459C38.0771 15.9014 38.5084 16.1692 38.9852 16.3282ZM28.7004 17.425C28.6515 17.1332 28.6515 16.8353 28.7004 16.5435V16.1048C28.4131 16.0169 28.1428 15.881 27.9009 15.703C27.4692 15.3463 27.1432 14.8784 26.9579 14.35L26.6504 13.2963V32.8H12.3004C11.213 32.8 10.1702 32.368 9.40125 31.5991C8.63235 30.8302 8.20039 29.7874 8.20039 28.7V10.25C8.20039 9.70628 8.41637 9.18486 8.80082 8.80041C9.18527 8.41596 9.7067 8.19998 10.2504 8.19998H20.6992C20.5708 7.87334 20.5034 7.52593 20.5004 7.17498C20.5087 6.823 20.5816 6.47555 20.7156 6.14998H10.2504C9.163 6.14998 8.12015 6.58194 7.35125 7.35084C6.58235 8.11974 6.15039 9.16259 6.15039 10.25V28.7C6.15039 30.3311 6.79834 31.8953 7.95168 33.0487C9.10503 34.202 10.6693 34.85 12.3004 34.85H28.7004C30.3315 34.85 31.8957 34.202 33.0491 33.0487C34.2024 31.8953 34.8504 30.3311 34.8504 28.7V25.625C34.8504 25.3531 34.7424 25.0924 34.5502 24.9002C34.3579 24.708 34.0972 24.6 33.8254 24.6H28.7004V17.425ZM28.7004 26.65H32.8004V28.7C32.8004 29.7874 32.3684 30.8302 31.5995 31.5991C30.8306 32.368 29.7878 32.8 28.7004 32.8V26.65ZM12.3004 13.325C12.3004 13.0531 12.4084 12.7924 12.6006 12.6002C12.7928 12.408 13.0535 12.3 13.3254 12.3H21.5254C21.7972 12.3 22.0579 12.408 22.2502 12.6002C22.4424 12.7924 22.5504 13.0531 22.5504 13.325C22.5504 13.5968 22.4424 13.8575 22.2502 14.0498C22.0579 14.242 21.7972 14.35 21.5254 14.35H13.3254C13.0535 14.35 12.7928 14.242 12.6006 14.0498C12.4084 13.8575 12.3004 13.5968 12.3004 13.325ZM12.3004 19.475C12.3004 19.2031 12.4084 18.9424 12.6006 18.7502C12.7928 18.558 13.0535 18.45 13.3254 18.45H21.5254C21.7972 18.45 22.0579 18.558 22.2502 18.7502C22.4424 18.9424 22.5504 19.2031 22.5504 19.475C22.5504 19.7468 22.4424 20.0075 22.2502 20.1998C22.0579 20.392 21.7972 20.5 21.5254 20.5H13.3254C13.0535 20.5 12.7928 20.392 12.6006 20.1998C12.4084 20.0075 12.3004 19.7468 12.3004 19.475ZM12.3004 25.625C12.3004 25.3531 12.4084 25.0924 12.6006 24.9002C12.7928 24.708 13.0535 24.6 13.3254 24.6H17.4254C17.6972 24.6 17.9579 24.708 18.1502 24.9002C18.3424 25.0924 18.4504 25.3531 18.4504 25.625C18.4504 25.8968 18.3424 26.1575 18.1502 26.3498C17.9579 26.542 17.6972 26.65 17.4254 26.65H13.3254C13.0535 26.65 12.7928 26.542 12.6006 26.3498C12.4084 26.1575 12.3004 25.8968 12.3004 25.625Z" fill="#413F3F"/>
    </g>
    <defs>
        <clipPath id="clip0_1681_1104">
            <rect width="41" height="41" fill="white"/>
        </clipPath>
    </defs>
</svg>
