<svg width="41" height="41" viewBox="0 0 41 41" fill="none" xmlns="http://www.w3.org/2000/svg">
    <path d="M5.125 20.5L8.54167 17.0833M8.54167 17.0833L20.5 5.125L32.4583 17.0833M8.54167 17.0833V34.1667C8.54167 35.1102 9.30651 35.875 10.25 35.875H15.375M32.4583 17.0833L35.875 20.5M32.4583 17.0833V34.1667C32.4583 35.1102 31.6935 35.875 30.75 35.875H25.625M15.375 35.875C16.3185 35.875 17.0833 35.1102 17.0833 34.1667V27.3333C17.0833 26.3898 17.8482 25.625 18.7917 25.625H22.2083C23.1518 25.625 23.9167 26.3898 23.9167 27.3333V34.1667C23.9167 35.1102 24.6815 35.875 25.625 35.875M15.375 35.875H25.625" stroke="#413F3F" stroke-width="2" stroke-linecap="round" stroke-linejoin="round"/>
</svg>
