<svg width="37" height="33" viewBox="0 0 37 33" fill="none" xmlns="http://www.w3.org/2000/svg">
    <path d="M34.5795 8.41778C34.187 6.93966 33.0303 5.77553 31.5618 5.38047C28.8999 4.6626 18.2261 4.6626 18.2261 4.6626C18.2261 4.6626 7.55233 4.6626 4.89039 5.38047C3.42183 5.7756 2.26521 6.93966 1.87264 8.41778C1.15939 11.097 1.15939 16.6868 1.15939 16.6868C1.15939 16.6868 1.15939 22.2767 1.87264 24.9559C2.26521 26.434 3.42183 27.5497 4.89039 27.9447C7.55233 28.6626 18.2261 28.6626 18.2261 28.6626C18.2261 28.6626 28.8998 28.6626 31.5618 27.9447C33.0303 27.5497 34.187 26.434 34.5795 24.9559C35.2928 22.2767 35.2928 16.6868 35.2928 16.6868C35.2928 16.6868 35.2928 11.097 34.5795 8.41778ZM14.7351 21.762V11.6117L23.6563 16.687L14.7351 21.762Z" fill="#FF4141"/>
</svg>
